<svg xmlns="http://www.w3.org/2000/svg" viewBox="0 0 94.59 110.88"><defs><style>.cls-1{isolation:isolate;}.cls-2{mix-blend-mode:soft-light;}.cls-3{fill:#999;}</style></defs><title>Laptop</title><g class="cls-1"><g id="Layer_2" data-name="Layer 2"><g id="man"><g id="Laptop"><path class="cls-2" d="M72.9,110.88c-11.79-2.75-23.46-6.09-35-9.68Q30,98.77,22.29,96.11L19,95A20.55,20.55,0,0,1,22,94.14l1-.13C37.54,92.42,55.27,99.84,72.9,110.88Z"/><rect class="cls-3" x="2.7" y="97.28" width="92.44" height="3.39" rx="1.7" transform="translate(16.15 -6.46) rotate(9.04)"/><rect class="cls-3" x="1.56" y="-0.03" width="2.37" height="92.44" rx="1.18" transform="translate(-1.6 0.12) rotate(-1.98)"/><rect class="cls-3" x="10.03" y="90.17" width="6.87" height="1.49" rx="0.74" transform="translate(14.45 -0.99) rotate(9.04)"/><rect class="cls-3" x="18.38" y="91.5" width="6.87" height="1.49" rx="0.74" transform="translate(14.76 -2.28) rotate(9.04)"/><rect class="cls-3" x="26.74" y="92.83" width="6.87" height="1.49" rx="0.74" transform="matrix(0.99, 0.16, -0.16, 0.99, 15.07, -3.58)"/><rect class="cls-3" x="35.1" y="94.16" width="6.87" height="1.49" rx="0.74" transform="matrix(0.99, 0.16, -0.16, 0.99, 15.38, -4.87)"/><rect class="cls-3" x="43.46" y="95.49" width="6.87" height="1.49" rx="0.74" transform="translate(15.7 -6.17) rotate(9.04)"/><rect class="cls-3" x="51.82" y="96.82" width="6.87" height="1.49" rx="0.74" transform="translate(16.01 -7.47) rotate(9.04)"/></g></g></g></g></svg>