<svg xmlns="http://www.w3.org/2000/svg" xmlns:xlink="http://www.w3.org/1999/xlink" viewBox="0 0 402.13 262.86"><defs><style>.cls-1{isolation:isolate;}.cls-2{fill:#301709;}.cls-3{fill:#eab88c;}.cls-4{opacity:0.25;}.cls-12,.cls-5{mix-blend-mode:soft-light;}.cls-6{fill:url(#linear-gradient);}.cls-7{fill:url(#linear-gradient-2);}.cls-8{fill:#42210b;}.cls-9{mix-blend-mode:color-burn;}.cls-10{fill:#e44d26;}.cls-11{fill:#fff;}.cls-12{opacity:0.23;}</style><linearGradient id="linear-gradient" x1="103.55" y1="98.14" x2="-35.35" y2="107.07" gradientUnits="userSpaceOnUse"><stop offset="0" stop-color="#edc3a6"/><stop offset="0.21" stop-color="#f4d3bc"/><stop offset="0.52" stop-color="#ffebdc"/></linearGradient><linearGradient id="linear-gradient-2" x1="355.74" y1="198.9" x2="311.79" y2="125.63" gradientUnits="userSpaceOnUse"><stop offset="0" stop-color="#d6262a"/><stop offset="1" stop-color="#ee2b2f"/></linearGradient></defs><title>Legs and Boat</title><g class="cls-1"><g id="Layer_2" data-name="Layer 2"><g id="man"><g id="Legs_and_Boat" data-name="Legs and Boat"><path id="back_boat" data-name="back boat" class="cls-2" d="M401,145c4-14-314.13-41.72-401-30,47.87,26.28,100,62,236,59H397Z"/><g id="R_lower_leg" data-name="R lower leg"><path class="cls-3" d="M215.25,188H177.39C168.09,144.57,139.61,22.88,171,4c8.35,17.16,19.88,37.14,30.73,55,5.95,9.78,11.7,18.91,16.61,26.58C211,106.74,198.26,154,215.25,188Z"/><g class="cls-4"><path d="M184.38,153.84l1.86.37a.37.37,0,0,0,.2-.72l-1.86-.37a.37.37,0,0,0-.46.26.37.37,0,0,0,.26.46Z"/><path d="M183.54,150.13h2.05a.38.38,0,0,0,.38-.37.39.39,0,0,0-.38-.38h-2.05a.38.38,0,0,0,0,.75Z"/><path d="M182.8,139.87a22.88,22.88,0,0,0,6.07-.33c.47-.09.27-.81-.2-.72a22.21,22.21,0,0,1-5.87.3c-.48,0-.48.71,0,.75Z"/><path d="M185,129.43a4.38,4.38,0,0,1-2.77-.53.38.38,0,0,0-.38.65,5,5,0,0,0,3.15.63.38.38,0,1,0,0-.75Z"/><path d="M178.14,136.9a.38.38,0,0,0,0-.75.38.38,0,0,0,0,.75Z"/><path d="M174.26,126.72l-.81-4.08c-.09-.48-.82-.28-.72.2l.8,4.08c.1.48.82.28.73-.2Z"/><path d="M177,116.58v-3.17a.38.38,0,0,0-.75,0v3.17a.38.38,0,0,0,.75,0Z"/><path d="M198.67,136.11a24.19,24.19,0,0,0,4.12,3.84.38.38,0,0,0,.51-.13.39.39,0,0,0-.14-.52,23.64,23.64,0,0,1-4-3.72.37.37,0,0,0-.53,0,.39.39,0,0,0,0,.53Z"/><path d="M203.11,147.71v2.79a.38.38,0,0,0,.75,0v-2.79a.38.38,0,0,0-.75,0Z"/><path d="M194.54,147.52v.56a.35.35,0,0,0,.11.26.33.33,0,0,0,.26.11.35.35,0,0,0,.27-.11.36.36,0,0,0,.11-.26v-.56a.38.38,0,0,0-.38-.37.34.34,0,0,0-.26.11.36.36,0,0,0-.11.26Z"/><path d="M189.14,146.4a.38.38,0,0,0,0-.75.38.38,0,0,0,0,.75Z"/><path d="M175.72,144.91H174a.38.38,0,0,0-.38.37.39.39,0,0,0,.38.38h1.68a.38.38,0,0,0,0-.75Z"/><path d="M177,157.78l-.37,0h-.11l-.19-.05a2,2,0,0,1-.35-.11c-.09,0,.05,0,0,0l-.08,0-.18-.1a.38.38,0,0,0-.51.14.37.37,0,0,0,.13.51,3.4,3.4,0,0,0,1.68.44.39.39,0,0,0,.38-.38.38.38,0,0,0-.38-.37Z"/><path d="M184.38,171.7a32.5,32.5,0,0,0,2.24,5.43c.22.43.87.05.65-.37a31.66,31.66,0,0,1-2.17-5.26c-.14-.46-.87-.27-.72.2Z"/><path d="M179.26,175.1V179a.38.38,0,0,0,.75,0V175.1a.38.38,0,0,0-.75,0Z"/><path d="M187.3,161.2a11,11,0,0,0,3.7.89.38.38,0,0,0,0-.75,9.83,9.83,0,0,1-3.33-.79.39.39,0,0,0-.51.14.37.37,0,0,0,.14.51Z"/><path d="M182.24,163.55h-.37a.27.27,0,0,0-.15,0,.28.28,0,0,0-.12.08.25.25,0,0,0-.08.12.32.32,0,0,0,0,.14l0,.1a.4.4,0,0,0,.09.17.44.44,0,0,0,.27.11h.37a.23.23,0,0,0,.14,0,.24.24,0,0,0,.12-.07.28.28,0,0,0,.08-.12.21.21,0,0,0,0-.15v-.1a.34.34,0,0,0-.1-.16.36.36,0,0,0-.26-.11Z"/><path d="M195.65,176.18a12.25,12.25,0,0,1,2.54,1.79.37.37,0,0,0,.53-.53,13.11,13.11,0,0,0-2.69-1.91.37.37,0,0,0-.51.13.39.39,0,0,0,.13.52Z"/><path d="M195.66,169.89h2.42a.38.38,0,0,0,.38-.38.38.38,0,0,0-.38-.37h-2.42a.38.38,0,0,0-.38.37.39.39,0,0,0,.38.38Z"/><path d="M197.15,158.15H199a.38.38,0,1,0,0-.75h-1.86a.38.38,0,0,0-.38.37.39.39,0,0,0,.38.38Z"/><path d="M194.91,155.54a.38.38,0,0,0,0-.75.38.38,0,0,0,0,.75Z"/><path d="M195.47,127.76a4.6,4.6,0,0,1,0-.83s0-.12,0,0,0-.07,0-.11,0-.13,0-.2a2.77,2.77,0,0,1,.12-.41.37.37,0,0,0-.26-.46.39.39,0,0,0-.47.26,4.25,4.25,0,0,0-.2,1.77.5.5,0,0,0,.11.27.46.46,0,0,0,.27.11c.18,0,.4-.17.37-.38Z"/><path d="M205.91,185.36a.38.38,0,0,0,0-.75.38.38,0,0,0,0,.75Z"/><path d="M205,184.61h-1.87a.38.38,0,0,0-.37.37.38.38,0,0,0,.37.38H205a.38.38,0,0,0,.37-.38.38.38,0,0,0-.37-.37Z"/><path d="M203.67,171.38v.74a.39.39,0,0,0,.11.27.37.37,0,0,0,.53,0,.4.4,0,0,0,.11-.27v-.74a.39.39,0,0,0-.11-.27.41.41,0,0,0-.26-.11.44.44,0,0,0-.27.11.37.37,0,0,0-.11.27Z"/><path d="M203.86,164.3a.38.38,0,0,0,0-.75.38.38,0,0,0,0,.75Z"/><path d="M188,183.31a.38.38,0,0,0,0-.75.38.38,0,0,0,0,.75Z"/><path d="M173.47,108.18a44.8,44.8,0,0,1,1.29-4.84c.15-.46-.57-.66-.72-.2a40.61,40.61,0,0,0-1.29,4.84c-.1.47.62.67.72.2Z"/><path d="M170.63,134l-.23.45a.37.37,0,0,0,0,.14.26.26,0,0,0,0,.15.31.31,0,0,0,.06.13.36.36,0,0,0,.11.1.41.41,0,0,0,.29,0,.34.34,0,0,0,.22-.17l.23-.45a.23.23,0,0,0,0-.14.26.26,0,0,0,0-.15.33.33,0,0,0-.07-.13.28.28,0,0,0-.1-.09.38.38,0,0,0-.29,0,.44.44,0,0,0-.23.17Z"/><path d="M182.69,117.75a20.42,20.42,0,0,0,.11,3.75.38.38,0,1,0,.75,0,20.42,20.42,0,0,1-.11-3.75c0-.48-.72-.48-.75,0Z"/></g><g class="cls-5"><path d="M215.25,188H195.32a63.71,63.71,0,0,1-1.18-7.1l-7.23-58.52c-1.43-11.55-2.86-23.27-1.07-34.77,1.71-11.07,6.84-22.1,15.87-28.64,5.95,9.78,11.7,18.91,16.61,26.58C211,106.74,198.26,154,215.25,188Z"/></g></g><g id="R_upper_leg" data-name="R upper leg"><path class="cls-3" d="M297,121s-51-16-77.26-32.44c-.44,1.2-.91,2.53-1.42,4-4.91-7.67-10.66-16.8-16.61-26.58C190.86,48.14,179.33,28.16,171,11h0c25-15,62.5,8.5,76,40,3.19,7.46,49.51,30.72,50,42.88C297.57,108.19,297,121,297,121Z"/><g class="cls-5"><path d="M297,121s-51-16-77.26-32.44c-.44,1.2-.91,2.53-1.42,4-4.91-7.67-10.66-16.8-16.61-26.58.35-.26.7-.5,1.06-.74,9.92-6.58,22.92-7,34.41-3.9s21.82,9.38,32,15.57l27.84,17C297.57,108.19,297,121,297,121Z"/></g></g><g id="L_upper_leg" data-name="L upper leg"><path class="cls-6" d="M299,79l-18.85,34-5.57,8.57-.5.77-12.48,19.2-.84,1.29-.55.84L256,150.08l-8.54,13.14-1.37,2.11c-39.47-23.05-64.88-56.06-69.92-69.12-9.21,23.07-13.73,56-15.73,75.55-1,9.85-1.38,16.27-1.38,16.27l-13.07,0-28.43,0a241.54,241.54,0,0,1-3.2-43C115.23,77,141.9,10.63,168.34,1.33a19,19,0,0,1,3-.82c.34,0,6.42-.85,6.3-.34,13.44.37,29.11,7.29,44.71,17.06C248.1,33.32,275,54,288.52,71.75a3.32,3.32,0,0,0,.43.41C293.33,76.31,296.77,76.92,299,79Z"/><path class="cls-7" d="M381,91.87c-1.77,46.93-16.68,99.66-61.7,97.62-27.84-1.26-52.58-11.12-73.17-24.16l1.37-2.11c2.79-4.35,5.54-8.76,8.23-13.3l1.11-1.87,0-.07c.91-1.55,1.82-3.11,2.72-4.7l.45-.79c.4-.7.8-1.4,1.19-2.11,3.46-6.23,6.8-12.7,10-19.5l.51-1.08q2.75-5.92,5.32-12.2c1.13-2.78,2.24-5.61,3.32-8.51.09-.23.17-.46.26-.7,2.86-7.75,5.5-15.93,7.9-24.64.14-.52.29-1.06.43-1.59L289,72a132.59,132.59,0,0,0,43.9,17.33,154.09,154.09,0,0,0,20,2.75l.54,0,1.9.13c1.7.1,3.37.18,5,.23A182.81,182.81,0,0,0,381,91.87Z"/><g class="cls-5"><path d="M381,91.87c-1.77,46.93-16.68,99.66-61.7,97.62-27.84-1.26-52.58-11.12-73.17-24.16-39.47-23.05-64.88-56.06-69.92-69.12-9.21,23.07-13.73,56-15.73,75.55-1-2.39-2-4.82-2.91-7.27-.79-2.16-11.91,15.71-12.57,13.5-7.11-23.37,3-69.14,12.29-91.64,3.23-7.79,8.11-15.61,15.93-18.73,7.17-2.85,15.35-1.15,22.54,1.64,28.35,11,49.19,37.77,75.45,51.62,1,.5,1.91,1,2.87,1.45a71.45,71.45,0,0,0,19.11,6.27,61.87,61.87,0,0,0,67.12-36.13A182.81,182.81,0,0,0,381,91.87Z"/></g><g class="cls-4"><g class="cls-5"><path d="M151.2,194.87l-.43,3.12A20.89,20.89,0,0,1,151.2,194.87Z"/></g><path d="M166.58,17.48h-4.53a.38.38,0,0,0,0,.75h4.53a.38.38,0,0,0,0-.75Z"/><path d="M155.51,33.7h-1.2a.38.38,0,0,0-.38.38.38.38,0,0,0,.38.37h1.2a.38.38,0,0,0,.38-.38.38.38,0,0,0-.38-.37Z"/><path d="M148.28,50.17a.38.38,0,0,0,0-.75.38.38,0,0,0,0,.75Z"/><path d="M161.55,26.89a.38.38,0,0,0,0-.75.38.38,0,0,0,0,.75Z"/><path d="M164,29.76a7.62,7.62,0,0,1-2.62-.59.38.38,0,0,0-.46.26.39.39,0,0,0,.26.47,8.29,8.29,0,0,0,2.82.61.38.38,0,0,0,.38-.37.39.39,0,0,0-.38-.38Z"/><path d="M160.92,39.54,159.11,38a.37.37,0,0,0-.53.53l1.81,1.5a.37.37,0,0,0,.53-.53Z"/><path d="M159.23,22.81,156.79,22a.37.37,0,0,0-.46.26.39.39,0,0,0,.26.46l2.44.84a.38.38,0,0,0,.47-.26.39.39,0,0,0-.27-.46Z"/><path d="M167.83,9.32A7.36,7.36,0,0,0,165,7.14a.38.38,0,0,0-.38.65,6.92,6.92,0,0,1,2.64,2.06.37.37,0,0,0,.53-.53Z"/><path d="M146.41,35.64l-1.52-1.2a.44.44,0,0,0-.27-.11.36.36,0,0,0-.26.11.37.37,0,0,0,0,.53l1.51,1.2a.39.39,0,0,0,.54,0,.39.39,0,0,0,0-.53Z"/><path d="M153,23.13l-.12,0c-.09,0,.06,0,0,0l-.21,0h-.41s0,0,0,0a2.23,2.23,0,0,1-.43-.1l-.1,0-.06,0h0l-.21-.1a.37.37,0,1,0-.38.64,3.1,3.1,0,0,0,2.11.31.38.38,0,0,0,.26-.46.37.37,0,0,0-.46-.26Z"/><path d="M144.54,60.07l-2.73-1.48a.4.4,0,0,0-.52.14.38.38,0,0,0,.14.51l2.73,1.48a.38.38,0,1,0,.38-.65Z"/><path d="M149.73,84.18h-.21a2.43,2.43,0,0,1-.27,0h-.07l-.1,0a1.31,1.31,0,0,1-.27-.06,1.34,1.34,0,0,1-.26-.09h0l-.13-.06-.23-.14-.12-.08h0s0,0,0,0a.39.39,0,0,0-.53,0,.38.38,0,0,0,0,.53,3.15,3.15,0,0,0,2.47.71.38.38,0,0,0,.26-.47.39.39,0,0,0-.46-.26Z"/><path d="M158.82,93.62,166.68,96c.46.15.66-.58.2-.72L159,92.89c-.46-.14-.66.59-.2.73Z"/><path d="M160.13,107h4.23a.38.38,0,0,0,0-.75h-4.23a.38.38,0,0,0,0,.75Z"/><path d="M160.44,112.1h2.72a.38.38,0,0,0,0-.75h-2.72a.38.38,0,0,0-.37.38.38.38,0,0,0,.37.37Z"/><path d="M154.08,103.35a.38.38,0,0,0,0-.75.38.38,0,0,0,0,.75Z"/><path d="M149.57,117.86a.38.38,0,0,0,0-.75.38.38,0,0,0,0,.75Z"/><path d="M148.07,130.25a.38.38,0,0,0,0-.75.38.38,0,0,0,0,.75Z"/><path d="M155.6,108.79a.38.38,0,0,0,0-.75.38.38,0,0,0,0,.75Z"/><path d="M154.71,120.27a.38.38,0,0,0,0-.75.38.38,0,0,0,0,.75Z"/><path d="M152.6,129.06a25.56,25.56,0,0,0,6.14-1,.37.37,0,0,0-.2-.72,24.89,24.89,0,0,1-5.94,1c-.48,0-.48.77,0,.75Z"/><path d="M157.73,121.78h1.21a.39.39,0,0,0,.38-.38.38.38,0,0,0-.38-.37h-1.21a.38.38,0,0,0,0,.75Z"/><path d="M151.75,140.11l.3.3a.25.25,0,0,0,.12.08.32.32,0,0,0,.14,0,.37.37,0,0,0,.15,0,.25.25,0,0,0,.12-.08l.06-.08a.38.38,0,0,0,.05-.19V140a.39.39,0,0,0-.1-.16l-.3-.3a.28.28,0,0,0-.12-.08.4.4,0,0,0-.15,0,.32.32,0,0,0-.14,0,.2.2,0,0,0-.12.08l-.06.07a.32.32,0,0,0-.05.19v.1a.37.37,0,0,0,.1.17Z"/><path d="M148.67,145.8l-.93,2.71a.37.37,0,0,0,.26.46.38.38,0,0,0,.46-.26l.93-2.71a.37.37,0,0,0-.26-.46.38.38,0,0,0-.46.26Z"/><path d="M140.85,152.47h-5.14a.38.38,0,0,0,0,.75h5.14a.38.38,0,0,0,0-.75Z"/><path d="M134.78,136.77h-2.11a.38.38,0,0,0-.38.38.38.38,0,0,0,.38.37h2.11a.38.38,0,0,0,.38-.38.38.38,0,0,0-.38-.37Z"/><path d="M138.38,116.89a15.43,15.43,0,0,1-6.14-1.85c-.42-.23-.8.41-.38.65a16.44,16.44,0,0,0,6.52,2c.48,0,.48-.71,0-.75Z"/><path d="M128.12,125h-3a.38.38,0,0,0,0,.75h3a.38.38,0,0,0,0-.75Z"/><path d="M134.84,103.56l-.91-.3a.41.41,0,0,0-.29,0,.44.44,0,0,0-.17.23.38.38,0,0,0,.26.46l.91.31a.37.37,0,0,0,.29,0,.46.46,0,0,0,.17-.22.39.39,0,0,0-.26-.47Z"/><path d="M133.42,91.48l-.38-.2-.09-.06s-.12-.1,0,0l-.16-.14-.15-.15-.06-.08,0,0c0-.05.05.07,0,0a3.17,3.17,0,0,1-.23-.36.37.37,0,1,0-.64.38,2.83,2.83,0,0,0,1.39,1.3.36.36,0,0,0,.29,0,.38.38,0,0,0,.26-.46.35.35,0,0,0-.17-.22Z"/><path d="M144.53,98.81A6.37,6.37,0,0,1,141,97.1c-.35-.34-.88.19-.53.53a7.17,7.17,0,0,0,4.09,1.93.38.38,0,1,0,0-.75Z"/><path d="M138.94,85h-1.72a.38.38,0,0,0,0,.75h1.72a.38.38,0,0,0,.37-.38.37.37,0,0,0-.37-.37Z"/><path d="M131.55,80.75a2.32,2.32,0,0,0-1-2.55.37.37,0,0,0-.51.13.39.39,0,0,0,.14.51l.12.09s0,0,0,0,0,0,0,0a1.26,1.26,0,0,1,.2.2s.06.08,0,0,0,0,0,0a.57.57,0,0,1,.08.13.41.41,0,0,1,.07.11l0,.07c0,.07,0,0,0,0l.09.27s0,.09,0,.13,0-.07,0,0,0,0,0,.07a1.41,1.41,0,0,1,0,.29s0,.09,0,0,0,0,0,0a.83.83,0,0,1,0,.15.38.38,0,0,0,.26.46.39.39,0,0,0,.47-.26Z"/><path d="M134.39,75.6l-2.58-1.71a.37.37,0,1,0-.37.65L134,76.25a.4.4,0,0,0,.52-.13.39.39,0,0,0-.14-.52Z"/><path d="M134.18,66.67l-1.31-2.56a.37.37,0,0,0-.51-.14.37.37,0,0,0-.13.51l1.3,2.57a.37.37,0,0,0,.51.14.39.39,0,0,0,.14-.52Z"/><path d="M137.13,52.73V50.16a.39.39,0,0,0-.38-.38.38.38,0,0,0-.37.38v2.57a.38.38,0,1,0,.75,0Z"/><path d="M141,45.32l-.46-2.57a.38.38,0,0,0-.46-.26.37.37,0,0,0-.26.46l.46,2.57a.37.37,0,0,0,.46.26.38.38,0,0,0,.26-.46Z"/><path d="M125.22,105.2h-3.87a.38.38,0,0,0,0,.75h3.87a.38.38,0,0,0,0-.75Z"/><path d="M126.07,97.36a.38.38,0,0,0,0-.75.38.38,0,0,0,0,.75Z"/><path d="M126.91,85.76a.38.38,0,0,0,0-.75.38.38,0,0,0,0,.75Z"/><path d="M125,137.48l-2.14,2.58a.39.39,0,0,0,0,.53.37.37,0,0,0,.53,0l2.14-2.58a.37.37,0,0,0-.53-.53Z"/><path d="M141.14,128.26a.38.38,0,0,0,0-.75.38.38,0,0,0,0,.75Z"/><path d="M141.13,119.24a.38.38,0,0,0,0-.75.38.38,0,0,0,0,.75Z"/><path d="M142,111.51a.38.38,0,0,0,0-.75.38.38,0,0,0,0,.75Z"/><path d="M145,108.5a.38.38,0,0,0,0-.75.38.38,0,0,0,0,.75Z"/><path d="M145,117.63h-1.72a.38.38,0,0,0,0,.75H145a.38.38,0,1,0,0-.75Z"/><path d="M124.37,116.36h-2.14a.38.38,0,0,0-.38.37.39.39,0,0,0,.38.38h2.14a.38.38,0,0,0,.38-.37.39.39,0,0,0-.38-.38Z"/><path d="M123.53,133.12h-2.14a.38.38,0,0,0-.38.37.39.39,0,0,0,.38.38h2.14a.38.38,0,1,0,0-.75Z"/><path d="M121.46,152l-.47,6c0,.48.71.48.75,0l.47-6c0-.48-.71-.48-.75,0Z"/><path d="M121.91,168.71v2.15a.39.39,0,0,0,.38.37.37.37,0,0,0,.37-.37v-2.15a.38.38,0,1,0-.75,0Z"/><path d="M131.74,175.94a.38.38,0,0,0,0-.75.38.38,0,0,0,0,.75Z"/><path d="M132.17,173.8a.38.38,0,0,0,0-.75.38.38,0,0,0,0,.75Z"/><path d="M133.44,156.19a.38.38,0,0,0,0-.75.38.38,0,0,0,0,.75Z"/><path d="M140.39,163.2l.43,1.72a.38.38,0,0,0,.46.26.37.37,0,0,0,.26-.46l-.43-1.72a.38.38,0,0,0-.46-.26.38.38,0,0,0-.26.46Z"/><path d="M134.77,162.14a11.79,11.79,0,0,0-.38,4.83.38.38,0,1,0,.75,0,11.33,11.33,0,0,1,.35-4.63.37.37,0,0,0-.72-.2Z"/><path d="M142.58,174.89a17.23,17.23,0,0,0,4.37,5.65c.37.31.9-.22.53-.53a16.55,16.55,0,0,1-4.25-5.5c-.21-.43-.86,0-.65.38Z"/><path d="M151.49,171.18a4.83,4.83,0,0,1,4,1.63c.31.36.84-.17.53-.53a5.55,5.55,0,0,0-4.56-1.85c-.47,0-.48.8,0,.75Z"/><path d="M137.29,141.26H136a.38.38,0,0,0-.38.38.38.38,0,0,0,.38.37h1.29a.38.38,0,0,0,0-.75Z"/><path d="M124.08,181.69a2.89,2.89,0,0,1,0,.61.17.17,0,0,0,0,.07s0,.06,0,0l0,.18a2.23,2.23,0,0,1-.09.32.88.88,0,0,1,0,.15v0l0,.07a2.69,2.69,0,0,1-.16.29,2,2,0,0,1-.4.48.39.39,0,0,0,0,.54.4.4,0,0,0,.53,0,3.24,3.24,0,0,0,.94-2.95.37.37,0,0,0-.46-.26.38.38,0,0,0-.26.46Z"/><path d="M137.44,183.67a9.5,9.5,0,0,1,4.1.38c.46.14.66-.58.2-.73a10.24,10.24,0,0,0-4.5-.37.37.37,0,0,0-.26.46.38.38,0,0,0,.46.26Z"/><path d="M153.2,158.31h3.86a.38.38,0,0,0,0-.75H153.2a.38.38,0,0,0,0,.75Z"/><path d="M158.76,144.56h.86a.39.39,0,0,0,.27-.11.41.41,0,0,0,.11-.26.39.39,0,0,0-.38-.38h-.86a.38.38,0,0,0-.26.11.39.39,0,0,0-.11.27.38.38,0,0,0,.37.37Z"/><path d="M155.23,66.62a2.81,2.81,0,0,1-2.54-3.05.38.38,0,0,0-.26-.46.37.37,0,0,0-.46.26,3.56,3.56,0,0,0,3.26,4c.49,0,.49-.73,0-.75Z"/><path d="M156.31,51.93c-.49-1.94-1.17-3.81-1.66-5.74a.37.37,0,0,0-.72.2c.48,1.93,1.17,3.8,1.65,5.74a.38.38,0,0,0,.73-.2Z"/><path d="M169,84h2.15a.38.38,0,0,0,0-.75H169a.37.37,0,0,0-.37.38A.38.38,0,0,0,169,84Z"/><path d="M160.73,75.09a7.76,7.76,0,0,1-3.67-.4.38.38,0,0,0-.2.73,8.66,8.66,0,0,0,4.07.4.38.38,0,0,0,.26-.46.39.39,0,0,0-.46-.27Z"/></g><g class="cls-4"><path d="M178.86,9.79h-3.33a.38.38,0,0,0,0,.75h3.33a.38.38,0,0,0,0-.75Z"/><path d="M175.53,17.18a.38.38,0,0,0,0-.75.38.38,0,0,0,0,.75Z"/><path d="M174.33,29.13H174a.17.17,0,0,0-.14,0,.2.2,0,0,0-.12.08.25.25,0,0,0-.08.12.32.32,0,0,0,0,.14v.1a.42.42,0,0,0,.1.17l.07.05a.35.35,0,0,0,.19.06h.31a.23.23,0,0,0,.14,0,.24.24,0,0,0,.12-.07.35.35,0,0,0,.08-.13.32.32,0,0,0,0-.14v-.1a.34.34,0,0,0-.1-.16l-.07-.06a.34.34,0,0,0-.19-.05Z"/><path d="M171.73,52.62h6a.38.38,0,0,0,0-.75h-6a.38.38,0,0,0,0,.75Z"/><path d="M172.45,63.35H178a.38.38,0,0,0,0-.75h-5.58a.38.38,0,0,0,0,.75Z"/><path d="M174.84,78a6.93,6.93,0,0,1,3.69.34.38.38,0,0,0,.46-.26.39.39,0,0,0-.26-.47,7.8,7.8,0,0,0-4.09-.33.37.37,0,1,0,.2.72Z"/><path d="M185.67,83.52l2.15.43a.38.38,0,0,0,.46-.26.39.39,0,0,0-.26-.46l-2.15-.43a.38.38,0,0,0-.46.26.37.37,0,0,0,.26.46Z"/><path d="M188.85,92.94a7,7,0,0,0,5.08,2.6c.48,0,.48-.72,0-.75a6.28,6.28,0,0,1-4.54-2.38.39.39,0,0,0-.54,0,.4.4,0,0,0,0,.53Z"/><path d="M192.29,104.55l3.87,4.29c.32.36.85-.17.53-.53L192.82,104c-.32-.36-.85.17-.53.53Z"/><path d="M204.59,110.9l4.29.9c.47.1.67-.62.19-.72l-4.28-.9c-.47-.1-.67.62-.2.72Z"/><path d="M210.25,81.82h6.87a.38.38,0,0,0,0-.75h-6.87a.38.38,0,0,0,0,.75Z"/><path d="M204.42,51.2c.43.48.87,1,1.29,1.45l.38.45a1.83,1.83,0,0,0,.13.16l.06.08c.05.07,0,0,0,0,.33.44.66.88,1,1.3s.94,1.06,1.41,1.58c.33.36.86-.17.54-.53s-.88-.95-1.3-1.44l-.38-.45a1.83,1.83,0,0,0-.13-.16l-.06-.08,0,0c-.33-.43-.66-.87-1-1.29s-.94-1.07-1.41-1.59c-.33-.35-.86.18-.53.53Z"/><path d="M195,32.81a9.81,9.81,0,0,1,4.16,3.73c.25.41.9,0,.65-.38a10.63,10.63,0,0,0-4.43-4,.4.4,0,0,0-.52.14.38.38,0,0,0,.14.51Z"/><path d="M193,44.47a25.7,25.7,0,0,1,2.35,1.17,7.74,7.74,0,0,0,2.59.71.39.39,0,0,0,.46-.26.37.37,0,0,0-.26-.46,7.42,7.42,0,0,1-2.48-.68,24.31,24.31,0,0,0-2.46-1.2.37.37,0,0,0-.46.26.38.38,0,0,0,.26.46Z"/><path d="M207.91,29.37l6,2.58a.39.39,0,0,0,.51-.14.38.38,0,0,0-.14-.51l-6-2.58a.38.38,0,0,0-.51.14.37.37,0,0,0,.13.51Z"/><path d="M226.7,38.24,228,40a.37.37,0,0,0,.52.14.39.39,0,0,0,.13-.52l-1.29-1.71a.36.36,0,0,0-.23-.17.35.35,0,0,0-.28,0,.39.39,0,0,0-.14.52Z"/><path d="M237,57.23a21.37,21.37,0,0,0,1.72,1.43l.34.23.2.14.06,0h0l.17.14c.41.33.81.68,1.2,1s.9-.2.54-.53a21.37,21.37,0,0,0-1.72-1.43l-.34-.23-.2-.14-.06-.05s.05.05,0,0l-.17-.14c-.41-.33-.8-.68-1.2-1s-.89.21-.53.53Z"/><path d="M245.21,73.11l5.12,5.19c.33.35.86-.18.53-.53l-5.12-5.19c-.34-.35-.87.18-.53.53Z"/><path d="M244,83.94l3.44,2.57a.39.39,0,0,0,.52-.14.38.38,0,0,0-.14-.51l-3.44-2.57a.37.37,0,0,0-.51.14.38.38,0,0,0,.13.51Z"/><path d="M236.25,92.52l4.29,2.59c.41.25.79-.4.37-.65l-4.28-2.58a.37.37,0,0,0-.38.64Z"/><path d="M217.28,90.3c.86.75,1.65,1.59,2.55,2.29a15.49,15.49,0,0,0,3,1.72c.43.22.81-.43.38-.64A15.83,15.83,0,0,1,220.32,92c-.88-.7-1.66-1.52-2.51-2.26-.36-.32-.89.21-.53.53Z"/><path d="M226.86,73.1l2.58,1.71a.38.38,0,1,0,.38-.65l-2.58-1.71a.38.38,0,0,0-.51.13.4.4,0,0,0,.13.52Z"/><path d="M200.54,63.67l1.71,1.72a.37.37,0,0,0,.53-.53l-1.71-1.72a.37.37,0,0,0-.53.53Z"/><path d="M194.56,68.08l1.71,1.3a.35.35,0,0,0,.28,0,.36.36,0,0,0,.23-.17.4.4,0,0,0-.14-.52l-1.7-1.3a.42.42,0,0,0-.29,0,.44.44,0,0,0-.23.17.4.4,0,0,0,.14.52Z"/><path d="M207.24,72.37h2.15a.38.38,0,1,0,0-.75h-2.15a.38.38,0,0,0,0,.75Z"/><path d="M185.77,45.85h-1.29a.38.38,0,0,0-.37.38.37.37,0,0,0,.37.37h1.29a.37.37,0,0,0,.37-.37.38.38,0,0,0-.37-.38Z"/><path d="M180.19,37.58a.38.38,0,0,0,0-.75.38.38,0,0,0,0,.75Z"/><path d="M180.33,36.54l-2.56-1.32a.38.38,0,0,0-.38.65L180,37.19a.38.38,0,0,0,.51-.13.39.39,0,0,0-.13-.52Z"/><path d="M183.37,22.31,181.21,21a.37.37,0,0,0-.51.13.4.4,0,0,0,.14.52L183,23a.37.37,0,0,0,.38-.64Z"/><path d="M192.48,23.2l-2.15-2.15a.37.37,0,1,0-.53.53L192,23.73a.38.38,0,0,0,.53,0,.4.4,0,0,0,0-.53Z"/><path d="M196.94,17.83a.38.38,0,0,0,0-.75.38.38,0,0,0,0,.75Z"/><path d="M217.12,45.31h.43a.17.17,0,0,0,.14,0,.26.26,0,0,0,.13-.08.24.24,0,0,0,.07-.12.23.23,0,0,0,0-.14.44.44,0,0,0-.11-.27.46.46,0,0,0-.27-.11h-.43a.23.23,0,0,0-.14,0,.24.24,0,0,0-.12.07.28.28,0,0,0-.08.12.21.21,0,0,0,0,.15.31.31,0,0,0,.11.26.36.36,0,0,0,.26.11Z"/><path d="M212.28,21.47a3.23,3.23,0,0,1-2.85-1c-.34-.35-.87.18-.54.53a4,4,0,0,0,3.59,1.16.37.37,0,0,0,.26-.46.38.38,0,0,0-.46-.26Z"/><path d="M225.79,54.18h-1.61a.38.38,0,1,0,0,.75h1.61a.38.38,0,0,0,0-.75Z"/><path d="M227.93,109.43h-3.22a.38.38,0,0,0,0,.75h3.22a.38.38,0,0,0,0-.75Z"/><path d="M219.89,126.59h-2.15a.38.38,0,0,0,0,.75h2.15a.38.38,0,0,0,0-.75Z"/><path d="M204.27,122.72c-2.27-2-4.35-4.22-6.61-6.25-.36-.32-.89.21-.53.53,2.26,2,4.34,4.23,6.6,6.25.36.33.9-.2.54-.53Z"/><path d="M231.05,142.15a3.27,3.27,0,0,1-2.85-1c-.34-.35-.87.18-.53.53a4,4,0,0,0,3.58,1.16.37.37,0,1,0-.2-.72Z"/><path d="M243.53,135.32a28.39,28.39,0,0,1-5.67-2.91c-.4-.27-.78.38-.37.65a29,29,0,0,0,5.84,3c.46.17.65-.56.2-.73Z"/><path d="M259.12,127.71a28.92,28.92,0,0,1-8.45-5.25c-.36-.32-.89.21-.53.53a30,30,0,0,0,8.79,5.45c.44.18.64-.55.19-.73Z"/><path d="M261.72,101.92H259a.38.38,0,0,0,0,.75h2.68a.39.39,0,0,0,.38-.38.38.38,0,0,0-.38-.37Z"/><path d="M236.51,113.39a.38.38,0,0,0,0-.75.38.38,0,0,0,0,.75Z"/><path d="M248.47,108.46l-1.07-.54a.35.35,0,0,0-.28,0,.4.4,0,0,0-.23.17.39.39,0,0,0,.14.52l1.06.54a.37.37,0,0,0,.29,0,.44.44,0,0,0,.23-.17.39.39,0,0,0-.14-.52Z"/><path d="M260.2,117a12.86,12.86,0,0,1-5.65-2.74c-.37-.3-.91.22-.54.53a13.92,13.92,0,0,0,6,2.94c.47.1.67-.63.2-.73Z"/><path d="M266.55,88h-4.29a.38.38,0,0,0,0,.75h4.29a.38.38,0,0,0,0-.75Z"/><path d="M253.13,55.9a5.83,5.83,0,0,1-3.91-2.23.38.38,0,0,0-.53,0,.39.39,0,0,0,0,.53,6.52,6.52,0,0,0,4.44,2.45c.2,0,.37-.19.37-.37a.39.39,0,0,0-.37-.38Z"/><path d="M240.27,40.82a5.26,5.26,0,0,1-4.45-2,.38.38,0,0,0-.51-.13.38.38,0,0,0-.14.51,6.07,6.07,0,0,0,5.1,2.42c.48,0,.48-.78,0-.75Z"/><path d="M240.27,149.72a12,12,0,0,1-2.67-3.05,28.2,28.2,0,0,1-1.64-3.78c-.17-.44-.9-.25-.72.2a28.37,28.37,0,0,0,1.72,4,12.46,12.46,0,0,0,2.77,3.2c.37.32.9-.21.54-.53Z"/><path d="M236.57,124.57l-2.67-1.1a.37.37,0,0,0-.46.26.38.38,0,0,0,.26.46l2.67,1.1a.37.37,0,0,0,.46-.26.39.39,0,0,0-.26-.46Z"/><path d="M253.14,140.21a.38.38,0,0,0,0-.75.38.38,0,0,0,0,.75Z"/><path d="M269.23,111.25a.38.38,0,0,0,0-.75.38.38,0,0,0,0,.75Z"/></g></g><path class="cls-8" d="M402.06,148.22l-9.21,54.13-7.72,45.36S120.76,312.21,26.29,175C14.7,158.19,5.68,138.35,0,115c118.83,13.53,247,48,375,27,4.64-.76,15.78,0,23,.77A4.66,4.66,0,0,1,402.06,148.22Z"/><g class="cls-9"><path class="cls-10" d="M31.2,130l3.3.48,1.16,5,2.74.42-1-5,3.33.49,2.19,13.52-2.83-.45-.81-4-2.6-.4.93,4.05-2.81-.45m11.11-6.55-2.78-.42-.72-5,9.3,1.37.2,5-2.81-.43.62,8.44-2.87-.45M53,133.22l3.57.52,2,5.53L61,134.4l3.64.53L63.2,148.15l-2.94-.47.41-6-2.36,4.14-2-4.8-.09,6-2.9-.46m13-11.39,4,.58L68.7,145l4.32.67-.92,3.88-7.43-1.18"/><path class="cls-10" d="M44.25,179.64,32.2,148l42.75,7L64.06,183.36l-10-.07"/><path class="cls-11" d="M41.8,158.68l11.61,2,.13,4.57-5.95-1,.9,4,5.17.92.11,3.41-8.17-1.48m.3,1.58,3.65.66.51,2.32,3.84,1.49.08,2.53-6.72-2.59"/><path class="cls-11" d="M65.24,162.69l-11.83-2,.13,4.57L64.2,167.1m-1.15,3.73-9.39-1.67.11,3.41,4.65.84-.66,3.68-3.86.08.08,2.55,6.78-.09"/></g><g class="cls-5"><path d="M150.77,198a20.89,20.89,0,0,1,.43-3.12Z"/></g><path class="cls-12" d="M392.85,202.35l-7.72,45.36S120.76,312.21,26.29,175c9.09-.5,27.94,12.6,36.71,16,56,21.64,104.82,31.13,164.57,37.37C283.8,234.22,342.54,227.78,392.85,202.35Z"/></g></g></g></g></svg>