<svg xmlns="http://www.w3.org/2000/svg" xmlns:xlink="http://www.w3.org/1999/xlink" viewBox="0 0 144 200.9"><defs><style>.cls-1{isolation:isolate;}.cls-2{fill:url(#linear-gradient);}.cls-3,.cls-6{mix-blend-mode:soft-light;}.cls-4{fill:url(#linear-gradient-2);}.cls-5{fill:#ccc;}.cls-7{fill:url(#linear-gradient-3);}.cls-8{fill:#999;}.cls-9{fill:#fc0;}</style><linearGradient id="linear-gradient" x1="101.46" y1="120.76" x2="-115.12" y2="136.89" gradientUnits="userSpaceOnUse"><stop offset="0" stop-color="gray"/><stop offset="0.52" stop-color="#e6e6e6"/></linearGradient><linearGradient id="linear-gradient-2" x1="72" y1="86.37" x2="72" y2="-26.67" gradientUnits="userSpaceOnUse"><stop offset="0" stop-color="#edc3a6"/><stop offset="0" stop-color="#eec5a9"/><stop offset="0" stop-color="gray"/><stop offset="0.52" stop-color="#e6e6e6"/></linearGradient><linearGradient id="linear-gradient-3" x1="60.63" y1="156.21" x2="80.96" y2="191.03" gradientUnits="userSpaceOnUse"><stop offset="0" stop-color="#fff"/><stop offset="1"/></linearGradient></defs><title>Motor</title><g class="cls-1"><g id="Layer_2" data-name="Layer 2"><g id="man"><g id="Motor"><path class="cls-2" d="M75.56,68.58c-1.19,2.71-2.33,5.36-3.41,7.93-1,2.3-1.89,4.56-2.77,6.75-20.51,51.28-36.24,73.66-21.16,82.26a6.81,6.81,0,0,1,3.44,5.88v.22A13.48,13.48,0,0,1,38.18,185.2H15.28a6.84,6.84,0,0,1-6.76-5.83,5.73,5.73,0,0,1-.08-1l19-110.09c0-3.78,3.06-.58,6.84-.58H61l.77,0c.18,0,.39,0,.59-.06C67.9,67,77.34,64.54,75.56,68.58Z"/><path class="cls-3" d="M75.56,68.58c-1.19,2.71-2.33,5.36-3.41,7.93-1,2.3-1.89,4.56-2.77,6.75-20.51,51.28-36.24,73.66-21.16,82.26a6.81,6.81,0,0,1,3.44,5.88v.22A13.48,13.48,0,0,1,38.18,185.2H15.28a6.84,6.84,0,0,1-6.76-5.83,7.43,7.43,0,0,1,1.33-.51c2.31-.61,4.75-.23,7.11.13,3.73.57,24,6.22,25.46-2.43,1.16-6.91-7.35-13.9-9.7-18.47C26.48,146,44.41,131.68,46.25,118.16s6.44-26.5,11.06-39.34c.16-.44.32-.87.49-1.3l-2.12-.07a167,167,0,0,1-23.92-2.64c-1.44-.26-2.89-.56-4.32-.94v-5.6c0-3.78,3.06-.58,6.84-.58H61l.77,0c.18,0,.39,0,.59-.06C67.9,67,77.34,64.54,75.56,68.58Z"/><path class="cls-4" d="M144,51a17.74,17.74,0,0,1-17.67,17.81H17.67a17.47,17.47,0,0,1-9.94-3.09A17.8,17.8,0,0,1,0,51L4,15.9c1.35-23.18,92.18-22.26,127.32,11,.3.29.61.58.9.88C138.71,34.21,143,41.94,144,51Z"/><path class="cls-5" d="M82.61,159.93a28.47,28.47,0,0,1-2.32,11.74c-1.69,3.71-4.19,6-7,6-5.11,0-9.27-8-9.27-17.78,0-8,2.73-14.7,6.49-17a5.25,5.25,0,0,1,2.78-.82C78.45,142.15,82.61,150.11,82.61,159.93Z"/><g class="cls-6"><path d="M82.61,159.93a28.47,28.47,0,0,1-2.32,11.74A9.44,9.44,0,0,1,74.4,163a32.34,32.34,0,0,1,.53-4.27A22.37,22.37,0,0,0,70.55,143a5.25,5.25,0,0,1,2.78-.82C78.45,142.15,82.61,150.11,82.61,159.93Z"/></g><path class="cls-7" d="M54.67,185.31c64.44-1.9,39.49-24.24,5.91-26a2.49,2.49,0,0,0-2.44,3.35A17,17,0,0,1,52.93,181,2.47,2.47,0,0,0,54.67,185.31Z"/><path class="cls-5" d="M81.14,183.12c0,8-2.74,14.69-6.49,17a5.38,5.38,0,0,1-.75.39,2.43,2.43,0,0,1-.49.18,2.78,2.78,0,0,1-.63.16,1,1,0,0,1-.28.05,4.58,4.58,0,0,1-.64,0c-5.11,0-9.27-8-9.27-17.78,0-.55,0-1.11,0-1.67,0-.34,0-.66.07-1a.66.66,0,0,1,0-.15c2.92-.19,5.61-.43,8.07-.7,3.84-.45,7.13-1,10-1.61A32.49,32.49,0,0,1,81.14,183.12Z"/><g class="cls-6"><path d="M74.65,200.08a5.38,5.38,0,0,1-.75.39,2.43,2.43,0,0,1-.49.18,2.78,2.78,0,0,1-.63.16,1,1,0,0,1-.28.05,4.58,4.58,0,0,1-.64,0c-5.11,0-9.27-8-9.27-17.78,0-.55,0-1.11,0-1.67,0-.34,0-.66.07-1a.66.66,0,0,1,0-.15c2.92-.19,5.61-.43,8.07-.7a2.68,2.68,0,0,1,0,.4,32.34,32.34,0,0,1-.53,4.27A22.35,22.35,0,0,0,74.65,200.08Z"/></g><g class="cls-6"><path d="M144,51a17.74,17.74,0,0,1-17.67,17.81H17.67a17.47,17.47,0,0,1-9.94-3.09L113.16,59.3c5.35-.33,11-.76,15.38-3.85a15,15,0,0,0,4.69-18.15c-1.11-2.3-2.9-4.62-2.42-7.14a4.23,4.23,0,0,1,1.41-2.39C138.71,34.21,143,41.94,144,51Z"/></g><path class="cls-8" d="M27.43,47a6.3,6.3,0,1,1,0-.11A.41.41,0,0,1,27.43,47Z"/><path class="cls-8" d="M104.44,33.38a3.66,3.66,0,0,1,.07.8,5.24,5.24,0,0,1-4.36,5.27l-20.1,3.41a5.25,5.25,0,0,1-6-4c0-.11,0-.21-.07-.33l-.35-2.09a5.67,5.67,0,0,1,0-1.84,5.26,5.26,0,0,1,4.27-4.23L98.05,27a5.25,5.25,0,0,1,6,4.33Z"/><g class="cls-6"><path d="M27.43,47a5.71,5.71,0,0,1-11,2.18,2.14,2.14,0,0,1,.63.13c.7.26,1.31.73,2,1a5,5,0,0,0,4.37-.17,5,5,0,0,0,2.48-3.59l0-.62a4.86,4.86,0,0,1,1.55.92A.41.41,0,0,1,27.43,47Z"/></g><path class="cls-8" d="M76.57,39.94l-1.94.33L20.23,49.5l-.13-.8-.5-2.94a2,2,0,0,1,1.61-2.26l52.46-8.9h0a2,2,0,0,1,2.27,1.61l.38,2.26Z"/><path class="cls-3" d="M104.51,34.18a5.24,5.24,0,0,1-4.36,5.27l-20.1,3.41a5.2,5.2,0,0,1-5.42-2.59L20.23,49.5l-.13-.8a2.31,2.31,0,0,1,.45-.32,8.55,8.55,0,0,1,2.94-.87l50.59-8.65a7.28,7.28,0,0,1,2.24-.39,38.13,38.13,0,0,0,24.73-4.22A5,5,0,0,1,104.51,34.18Z"/><g id="JS_Logo" data-name="JS Logo"><rect class="cls-9" x="13.22" y="13.13" width="21.89" height="21.89" rx="3.48"/><path d="M17.41,31.2,19,30a1.63,1.63,0,0,0,1.41,1c.82,0,1.27-.42,1.27-1.77V22.69H24v6.78c0,2-1,3.57-3.27,3.57A3.45,3.45,0,0,1,17.41,31.2Z"/><path d="M25.65,31.57,27,30a4,4,0,0,0,2.49,1.06c1,0,1.43-.37,1.43-1s-.58-.84-1.46-1.21l-1.32-.56a3,3,0,0,1-2.06-2.77c0-1.69,1.51-3,3.62-3a4.67,4.67,0,0,1,3.27,1.33l-1.16,1.45a3.32,3.32,0,0,0-2.11-.8c-.79,0-1.29.33-1.29.91s.66.85,1.55,1.21l1.3.52a2.8,2.8,0,0,1,2,2.77c0,1.68-1.41,3.15-3.83,3.15A5.57,5.57,0,0,1,25.65,31.57Z"/></g></g></g></g></g></svg>