<svg xmlns="http://www.w3.org/2000/svg" xmlns:xlink="http://www.w3.org/1999/xlink" viewBox="0 0 42.62 58.75"><defs><style>.cls-1{isolation:isolate;}.cls-2{fill:#ccc;}.cls-3{mix-blend-mode:soft-light;}.cls-4{fill:url(#linear-gradient);}</style><linearGradient id="linear-gradient" x1="8.54" y1="14.06" x2="28.86" y2="48.88" gradientUnits="userSpaceOnUse"><stop offset="0" stop-color="#fff"/><stop offset="1"/></linearGradient></defs><title>propeller</title><g class="cls-1"><g id="Layer_2" data-name="Layer 2"><g id="man"><g id="Motor"><g id="Propeller"><path class="cls-2" d="M30.51,17.78a28.31,28.31,0,0,1-2.32,11.74c-1.68,3.71-4.19,6-7,6-5.12,0-9.28-8-9.28-17.78,0-8,2.74-14.7,6.49-17A5.26,5.26,0,0,1,21.24,0C26.35,0,30.51,8,30.51,17.78Z"/><g class="cls-3"><path d="M30.51,17.78a28.31,28.31,0,0,1-2.32,11.74,9.44,9.44,0,0,1-5.89-8.63,32.34,32.34,0,0,1,.53-4.27A22.35,22.35,0,0,0,18.45.82,5.26,5.26,0,0,1,21.24,0C26.35,0,30.51,8,30.51,17.78Z"/></g><path class="cls-4" d="M2.57,43.16c64.44-1.9,39.49-24.24,5.92-26A2.49,2.49,0,0,0,6,20.47,17,17,0,0,1,.83,38.85,2.47,2.47,0,0,0,2.57,43.16Z"/><path class="cls-2" d="M29,41c0,8-2.73,14.69-6.49,17a5.9,5.9,0,0,1-.74.39,2.51,2.51,0,0,1-.5.18,2.65,2.65,0,0,1-.63.16.92.92,0,0,1-.28.05,4.54,4.54,0,0,1-.63,0c-5.12,0-9.28-8-9.28-17.78,0-.55,0-1.11,0-1.67,0-.34,0-.66.06-1a.66.66,0,0,1,0-.15c2.93-.19,5.62-.44,8.07-.7,3.84-.45,7.13-1,10-1.61A32.49,32.49,0,0,1,29,41Z"/><g class="cls-3"><path d="M22.55,57.93a5.9,5.9,0,0,1-.74.39,2.51,2.51,0,0,1-.5.18,2.65,2.65,0,0,1-.63.16.92.92,0,0,1-.28.05,4.54,4.54,0,0,1-.63,0c-5.12,0-9.28-8-9.28-17.78,0-.55,0-1.11,0-1.67,0-.34,0-.66.06-1a.66.66,0,0,1,0-.15c2.93-.19,5.62-.44,8.07-.7a2.61,2.61,0,0,1,0,.4,32.34,32.34,0,0,1-.53,4.27A22.35,22.35,0,0,0,22.55,57.93Z"/></g></g></g></g></g></g></svg>