<svg xmlns="http://www.w3.org/2000/svg" xmlns:xlink="http://www.w3.org/1999/xlink" viewBox="0 0 102.72 33.92"><defs><style>.cls-1{isolation:isolate;}.cls-2{fill:url(#linear-gradient);}.cls-3,.cls-4{mix-blend-mode:soft-light;}.cls-5{fill:url(#linear-gradient-2);}</style><linearGradient id="linear-gradient" x1="52.04" y1="36.75" x2="48.32" y2="-14.92" gradientUnits="userSpaceOnUse"><stop offset="0" stop-color="#edc3a6"/><stop offset="0.21" stop-color="#f4d3bc"/><stop offset="0.52" stop-color="#ffebdc"/></linearGradient><linearGradient id="linear-gradient-2" x1="52.55" y1="-130.28" x2="-19.79" y2="-152.97" gradientTransform="translate(58.72 152.25) rotate(-32.99)" gradientUnits="userSpaceOnUse"><stop offset="0.21" stop-color="#f4d3bc"/><stop offset="0.52" stop-color="#ffebdc"/></linearGradient></defs><title>R arm</title><g class="cls-1"><g id="Layer_2" data-name="Layer 2"><g id="man"><g id="R_arm" data-name="R arm"><path class="cls-2" d="M102.72,24.67c-.62.48-1.23.94-1.85,1.38a66.73,66.73,0,0,1-8.7,5.27C78.82,33.8,39.65,33.11,28.6,28c-.2-.1-7.17-3.44-17.08,2.93a19.88,19.88,0,0,1-6,2.83c-13.38,3.08-.6-29.39,21-21.26C26.5,12.46,75.72-2,86.07.24L91.38,8l.84,1.23Z"/><ellipse class="cls-3" cx="18.49" cy="21.65" rx="8.26" ry="5.08" transform="translate(-5.42 6.2) rotate(-16.63)"/><g class="cls-4"><path d="M102.72,24.67c-.62.48-1.23.94-1.85,1.38a66.73,66.73,0,0,1-8.7,5.27C78.82,33.8,39.65,33.11,28.6,28c-.2-.1-7.17-3.44-17.08,2.93a19.88,19.88,0,0,1-6,2.83,11,11,0,0,1,0-1.81c.58-6.31,6.56-11,12.73-12.44s12.61-.54,18.94-.25c18.78.87,37.14-3.84,55.06-10Z"/></g><path class="cls-5" d="M26.8,16.75c2,4.67-16.74,9.68-18.33,5.23-1-2.86,1.52-6.31,6.58-7.76S25.45,13.57,26.8,16.75Z"/></g></g></g></g></svg>