<svg xmlns="http://www.w3.org/2000/svg" xmlns:xlink="http://www.w3.org/1999/xlink" viewBox="0 0 182.81 278.61"><defs><style>.cls-1{isolation:isolate;}.cls-2{fill:url(#linear-gradient);}.cls-10,.cls-3,.cls-5{mix-blend-mode:soft-light;}.cls-4{fill:url(#linear-gradient-2);}.cls-5{opacity:0.71;}.cls-6{fill:url(#linear-gradient-3);}.cls-7{fill:url(#linear-gradient-4);}.cls-8{fill:url(#linear-gradient-5);}.cls-9{fill:url(#linear-gradient-6);}.cls-11{fill:url(#linear-gradient-7);}.cls-12{fill:url(#linear-gradient-8);}.cls-13{fill:url(#linear-gradient-9);}.cls-14{fill:#0078c1;}</style><linearGradient id="linear-gradient" x1="93.26" y1="44.47" x2="50.38" y2="51.47" gradientUnits="userSpaceOnUse"><stop offset="0" stop-color="#edc3a6"/><stop offset="0.21" stop-color="#f4d3bc"/><stop offset="0.52" stop-color="#ffebdc"/></linearGradient><linearGradient id="linear-gradient-2" x1="83.07" y1="23.56" x2="41.72" y2="37.59" xlink:href="#linear-gradient"/><linearGradient id="linear-gradient-3" x1="68.63" y1="13.7" x2="91.2" y2="13.7" gradientUnits="userSpaceOnUse"><stop offset="0" stop-color="#611e00"/><stop offset="1" stop-color="#320000"/></linearGradient><linearGradient id="linear-gradient-4" x1="92.33" y1="1.35" x2="89.11" y2="13.08" xlink:href="#linear-gradient-3"/><linearGradient id="linear-gradient-5" x1="59.77" y1="99.12" x2="-41.92" y2="89.28" xlink:href="#linear-gradient"/><linearGradient id="linear-gradient-6" x1="23.87" y1="76.86" x2="-0.32" y2="74.52" xlink:href="#linear-gradient"/><linearGradient id="linear-gradient-7" x1="25.85" y1="74.57" x2="-31.09" y2="56.71" gradientUnits="userSpaceOnUse"><stop offset="0.21" stop-color="#f4d3bc"/><stop offset="0.52" stop-color="#ffebdc"/></linearGradient><linearGradient id="linear-gradient-8" x1="102.76" y1="96.16" x2="47.44" y2="90.8" gradientUnits="userSpaceOnUse"><stop offset="0" stop-color="#edc3a6"/><stop offset="0.52" stop-color="#f4d3bc"/><stop offset="0.52" stop-color="#ffebdc"/></linearGradient><linearGradient id="linear-gradient-9" x1="191.71" y1="173.45" x2="56.69" y2="155.02" gradientUnits="userSpaceOnUse"><stop offset="0" stop-color="#f0f0f0"/><stop offset="1" stop-color="#fff"/></linearGradient></defs><title>Asset 1</title><g class="cls-1"><g id="Layer_2" data-name="Layer 2"><g id="Torso_R_arm" data-name="Torso &amp; R arm"><g id="Head"><path class="cls-2" d="M83.81,59.27c-4.14-3.57-2.71-15.5-6.07-18A18.25,18.25,0,0,1,82,36.6a31.15,31.15,0,0,1,10.85-5.33s7.74,10.77,13,20"/><g class="cls-3"><path d="M94.56,50.43c1.86-1.77,2-4.79,1.08-7.17-.73-1.83-2.36-3.56-4.32-3.44-1.38.09-2.52,1.06-3.83,1.51a5.25,5.25,0,0,1-4.77-.79l.52.15A13.08,13.08,0,0,1,82,36.6a31.15,31.15,0,0,1,10.85-5.33s7.74,10.77,13,20"/></g><path class="cls-4" d="M93.81,36.27a14.33,14.33,0,0,1-13.24,6.39,8.6,8.6,0,0,1-1.78-.41c-2.71-2.3-5.61-6.45-8.48-13.48a34,34,0,0,1-2-11.51,14.08,14.08,0,0,1,.72-4,9.64,9.64,0,0,1,1.24-2.46,12.31,12.31,0,0,1,8-5,7.55,7.55,0,0,1,6.77,2.32,21,21,0,0,1,4.7,8.76c.18.6.35,1.21.51,1.84,0,0,0,0,0,.08C92.06,24.32,94.48,29.55,93.81,36.27Z"/><g class="cls-5"><path d="M93.81,36.27a14.33,14.33,0,0,1-13.24,6.39,24.78,24.78,0,0,0,4.47-3,11,11,0,0,0,1.95-2,11.34,11.34,0,0,0,1.18-2.33c.86-2.2,1.39-4.74.4-6.89-1.09-2.32-3.64-3.54-6.06-4.37a31.22,31.22,0,0,1-4.14-1.57,7.37,7.37,0,0,1-3.24-2.93A1,1,0,0,1,75,19a1,1,0,0,1,.31-.49,12.17,12.17,0,0,1,5.55-2.66,12.72,12.72,0,0,1,4.27-.6,12.74,12.74,0,0,1,4.68,1.65c.18.6.35,1.21.51,1.84,0,0,0,0,0,.08C92.06,24.32,94.48,29.55,93.81,36.27Z"/></g><path class="cls-6" d="M90.81,21.27c-2.73,1.36-7.32,1-11.62-.07h0c-5.15-1.27-9.85-3.52-10.37-4.93C68,14,70,9.53,74,7.08a10.91,10.91,0,0,1,2.06-1C87,3.06,92.81,8.27,90.81,21.27Z"/><g class="cls-3"><path d="M90.81,21.27c-2.73,1.36-7.32,1-11.62-.07a1.7,1.7,0,0,1,.35-.14,10.15,10.15,0,0,1,1.91-.21,6.27,6.27,0,0,0,5-3.6,6.26,6.26,0,0,0-.66-6.14,10.54,10.54,0,0,0-4.63-3.18A16.53,16.53,0,0,0,79,7.17a11.08,11.08,0,0,0-5-.09,10.91,10.91,0,0,1,2.06-1C87,3.06,92.81,8.27,90.81,21.27Z"/></g><path class="cls-7" d="M88.5.38a6.66,6.66,0,0,1,8.41,4l.06.14a.88.88,0,0,1,0,.15,7,7,0,0,1-4.21,8.59,9.49,9.49,0,0,0-1.45-5,9.88,9.88,0,0,0-1.74-2.1A8.39,8.39,0,0,0,84.87,3.9,6.29,6.29,0,0,1,88.5.38"/><g class="cls-3"><path d="M92.81,13.27a9.49,9.49,0,0,0-1.45-5,9.88,9.88,0,0,0-1.74-2.1l1.08.23a5,5,0,0,0,2.06.16,5,5,0,0,0,1.72-.83,9.87,9.87,0,0,1,2.43-1.31l.06.14a.88.88,0,0,1,0,.15A7,7,0,0,1,92.81,13.27Z"/></g></g><g id="R_arm" data-name="R arm"><path class="cls-8" d="M75.53,120.86q-1.05.11-2.07.15a60.63,60.63,0,0,1-9.15-.24C53,116.15,23.68,96.58,17.82,87.3A8.71,8.71,0,0,1,17.15,86l1-1.63,6-10c3.87,1.9,44,13.08,50.71,19.82l.23,8.48Z"/><g class="cls-3"><path d="M75.53,120.86q-1.05.11-2.07.15a60.63,60.63,0,0,1-9.15-.24C53,116.15,23.68,96.58,17.82,87.3A8.71,8.71,0,0,1,17.15,86l1-1.63a16.75,16.75,0,0,1,2.91.73c1.65.5,3.12,1.8,4.52,2.76,1.89,1.31,3.72,2.69,5.62,4,3.38,2.32,6.78,4.62,10.16,6.94.83.57,1.61,1.21,2.46,1.75A30.61,30.61,0,0,0,46.51,102c.9.44,1.72,1,2.61,1.48,1.18.62,2.41,1.18,3.62,1.74.65.31,1.29.63,1.94.92s1.7.52,2.54.8a11.56,11.56,0,0,0,4.81.66,18.64,18.64,0,0,0,4.65-1.36c1.19-.46,2.42-.86,3.62-1.27a22.1,22.1,0,0,0,2-.94c.72-.34,1.47-.6,2.16-1q.27-.15.54-.33Z"/></g><path class="cls-9" d="M24.1,74.45c-1,5-3.25,8.89-7,11.59-35.34-14.77-7.34-30.77,6.66-11.77A.8.8,0,0,0,24.1,74.45Z"/><ellipse class="cls-10" cx="16.31" cy="74.27" rx="4" ry="6.5" transform="translate(-59.55 69) rotate(-73.64)"/><path class="cls-11" d="M21.48,74c-.69,3.93-15.2-.79-14.34-4.41.55-2.33,3.71-3.51,7.67-2.3S22,71.3,21.48,74Z"/><g class="cls-3"><path d="M17.81,84.39l-.35,0h.37Z"/></g><path class="cls-12" d="M86.31,116.77c-1.55,2.29-5,3.25-8.54,3.81l-.11,0c-.71.11-1.42.2-2.13.26L75,102.75l-.23-8.48s5-25,22-26a8,8,0,0,1,4.11,1.15C105.55,72.28,109.68,82.23,86.31,116.77Z"/><g class="cls-3"><path d="M86.31,116.77c-1.55,2.29-5,3.25-8.54,3.81l-.11,0c-.71.11-1.42.2-2.13.26L75,102.75c.61-.4,1.18-.85,1.78-1.26a6.56,6.56,0,0,0,2.32-2.18,19.79,19.79,0,0,1,1.16-2.06,17.48,17.48,0,0,0,2-3.06,38.49,38.49,0,0,1,2.34-4.73c.76-1.16,1.38-2.43,2-3.65.81-1.53,1.75-3,2.69-4.46a45.42,45.42,0,0,1,5.32-6.43,42.21,42.21,0,0,1,6.21-5.5C105.55,72.28,109.68,82.23,86.31,116.77Z"/></g></g><g id="Torso"><path class="cls-13" d="M181.41,245.85q1.26-12.65,1.38-24.55c0-1.45,0-2.89,0-4.32,0-.61,0-1.22,0-1.82l0-2.31q-.07-4.14-.29-8.18-.16-3.13-.4-6.2l-.09-1.11c-.1-1.41-.22-2.8-.36-4.19q-.27-2.82-.61-5.59c-.24-2.11-.52-4.2-.82-6.26-.18-1.25-.37-2.5-.58-3.73-.22-1.42-.46-2.83-.71-4.22-.21-1.15-.42-2.28-.64-3.41q-.62-3.18-1.32-6.3c-.42-1.87-.85-3.73-1.31-5.56-.35-1.39-.7-2.77-1.08-4.13-.19-.76-.4-1.51-.61-2.25q-.9-3.19-1.87-6.31c-.62-2-1.27-4-1.95-5.95-.45-1.34-.92-2.67-1.4-4q-.5-1.35-1-2.67-1.18-3.15-2.45-6.2-1-2.41-2.05-4.76c-.55-1.26-1.11-2.5-1.69-3.72q-1.11-2.4-2.27-4.73c-1-2-2-4-3.07-5.94l-1.2-2.2c-.66-1.19-1.32-2.36-2-3.52-1.52-2.62-3.09-5.17-4.67-7.63q-1.5-2.34-3-4.57l-.63-.91c-.56-.81-1.12-1.6-1.69-2.39-2.54-3.55-5.13-6.9-7.74-10-.45-.54-.9-1.08-1.36-1.61-.9-1.06-1.81-2.1-2.72-3.11l-.17-.19c-3.3-3.67-6.62-7-9.89-10l-.8-.73c-1.13-1-2.27-2-3.39-2.94l-.68-.56a95.63,95.63,0,0,0-11.62-8.29,21,21,0,0,1-4.49,3.71,24.3,24.3,0,0,1-8.82,3.28l-.22,0a29.39,29.39,0,0,1-9.36,0,79.24,79.24,0,0,1-1.51,8.84s0,0,0,0c-.28,1.32-.6,2.69-.94,4.12-.15.6-.3,1.21-.46,1.83-.66,2.63-1.41,5.42-2.23,8.34l-.24.86c-.37,1.31-.75,2.65-1.15,4l-.3,1q-1.17,4.05-2.45,8.36L72,94.64c-.37,1.23-.73,2.47-1.1,3.73-.06.21-.13.42-.19.63-.83,2.81-1.67,5.68-2.51,8.59-.12.41-.24.82-.35,1.23-.38,1.28-.75,2.57-1.12,3.87l-.21.72c-.79,2.8-1.58,5.64-2.36,8.5l-.24.88c-.35,1.3-.7,2.61-1,3.93l-.27,1c-.74,2.83-1.45,5.68-2.13,8.52,0,.16-.08.31-.11.47-.32,1.33-.63,2.66-.92,4-.11.47-.22.93-.32,1.4-.66,2.9-1.26,5.81-1.81,8.68-12.21,73.42,29.08,118.86,69.47,126.47C151,281.85,181.66,275.52,181.41,245.85Z"/><path class="cls-14" d="M54.7,194.79q7,2.58,14.32,4.93c39.13,12.59,79.22,18.31,104.63,14.9a72.22,72.22,0,0,0,9.11-1.77l0,2.31c0,.6,0,1.21,0,1.82a79.51,79.51,0,0,1-8.62,1.61,125.31,125.31,0,0,1-16.52,1c-25.09,0-57.84-5.74-89.87-16.05-4.14-1.33-8.22-2.73-12.23-4.17"/><path class="cls-14" d="M53.89,179.52C93.68,193.86,137.69,201,166.55,197a60.53,60.53,0,0,0,15.07-3.81c.14,1.39.26,2.78.36,4.19a67.78,67.78,0,0,1-14.89,3.58,130.56,130.56,0,0,1-17.79,1.11c-23.46,0-52.8-4.89-82.12-13.92q-6.83-2.1-13.33-4.4"/><path class="cls-14" d="M55.06,165q6.15,2.12,12.59,4c33.87,9.9,68.13,13.82,91.66,10.48,8.29-1.18,14.89-3.23,19.59-6,.25,1.39.49,2.8.71,4.22q-7.53,4-19.73,5.79a137,137,0,0,1-19,1.22c-25.62,0-57.15-5.67-86.31-15.56"/><path class="cls-14" d="M57.34,150.8q4.68,1.47,9.57,2.81c30.9,8.51,62.68,11.63,85,8.35,10.09-1.49,17.75-4.21,22.63-8,.38,1.36.73,2.74,1.08,4.13-5.46,3.71-13.25,6.36-23.12,7.81a139.23,139.23,0,0,1-20.17,1.34c-22.94,0-50.29-4.42-75.75-12.41"/><path class="cls-14" d="M170.12,139.46c-5.66,4.34-14.17,7.44-25.18,9.11A141,141,0,0,1,123.81,150a243.63,243.63,0,0,1-58.69-7.8q-2.87-.73-5.65-1.51c.29-1.33.6-2.66.92-4,29.27,8.26,61.23,11.35,84,7.89,11.12-1.69,19.39-4.81,24.38-9.15C169.2,136.79,169.67,138.12,170.12,139.46Z"/><path class="cls-14" d="M163.23,121.84c-5.87,4.49-14.69,7.74-26.09,9.56A145.83,145.83,0,0,1,114.5,133a225.45,225.45,0,0,1-50.16-6l-1.44-.35c.34-1.32.69-2.63,1-3.93,25.19,6.06,52.34,7.88,72.57,4.66,11.3-1.8,19.78-5,25-9.33C162.12,119.34,162.68,120.58,163.23,121.84Z"/><path class="cls-14" d="M155,105.25c-6.12,4.23-14.88,7.35-26,9.2a149.93,149.93,0,0,1-24.47,1.86,204.8,204.8,0,0,1-37.81-3.62c.37-1.3.74-2.59,1.12-3.87,21.07,4,42.93,4.62,60.5,1.68,10.6-1.77,19-4.78,24.63-8.77C153.68,102.89,154.34,104.06,155,105.25Z"/><path class="cls-14" d="M145.31,89.53c-5.59,3.3-13.52,6.28-24.77,8.27a149.68,149.68,0,0,1-25.88,2.11,184.66,184.66,0,0,1-23.74-1.54c.37-1.26.73-2.5,1.1-3.73a158.92,158.92,0,0,0,47.83-.78c9.5-1.68,17.33-4.29,23.14-7.63.57.79,1.13,1.58,1.69,2.39Z"/><path class="cls-14" d="M133.89,74.58a89.12,89.12,0,0,1-22.29,7A150.05,150.05,0,0,1,84,84c-2.93,0-5.87-.08-8.8-.23.4-1.37.78-2.71,1.15-4a150.65,150.65,0,0,0,34.51-2.14,87.81,87.81,0,0,0,20.32-6.17C132.08,72.48,133,73.52,133.89,74.58Z"/><path class="cls-14" d="M120.31,60.56a105.22,105.22,0,0,1-18.17,5.38,141.06,141.06,0,0,1-22.87,2.81c.34-1.43.66-2.8.94-4.12A135.55,135.55,0,0,0,101.33,62a105.25,105.25,0,0,0,15.59-4.4C118,58.56,119.18,59.54,120.31,60.56Z"/><g class="cls-3"><path d="M92.49,238.15c-5.53-4-10.68-9.63-11-16.45s4.25-12.7,9.25-17.21,10.77-8.37,14.45-14c7.66-11.74,4-27.11,2.23-41-2.39-18.44-9.72-38-3.84-55.62,4.19-12.58.19-21.58-4.51-32.82-1.1-2.62.39-5.73,1-8.55a21,21,0,0,0,4.49-3.71,95.63,95.63,0,0,1,11.62,8.29l.68.56c1.12.94,2.26,1.92,3.39,2.94l.8.73c3.27,3,6.59,6.32,9.89,10l.17.19c.91,1,1.82,2,2.72,3.11.46.53.91,1.07,1.36,1.61,2.61,3.14,5.2,6.49,7.74,10,.57.79,1.13,1.58,1.69,2.39l.63.91q1.51,2.23,3,4.57c1.58,2.46,3.15,5,4.67,7.63.68,1.16,1.34,2.33,2,3.52l1.2,2.2c1,1.94,2.07,3.92,3.07,5.94q1.15,2.33,2.27,4.73c.58,1.22,1.14,2.46,1.69,3.72q1.05,2.34,2.05,4.76,1.26,3,2.45,6.2.5,1.32,1,2.67c.48,1.32.95,2.65,1.4,4,.68,1.95,1.33,3.94,1.95,5.95s1.27,4.18,1.87,6.31c.21.74.42,1.49.61,2.25.38,1.36.73,2.74,1.08,4.13.46,1.83.89,3.69,1.31,5.56q.7,3.12,1.32,6.3c.22,1.13.43,2.26.64,3.41.25,1.39.49,2.8.71,4.22.21,1.23.4,2.48.58,3.73.3,2.06.58,4.15.82,6.26q.35,2.78.61,5.59c.14,1.39.26,2.78.36,4.19l.09,1.11q.24,3.06.4,6.2.21,4,.29,8.18l0,2.31c0,.6,0,1.21,0,1.82,0,1.43,0,2.87,0,4.32q-.14,11.91-1.38,24.55"/></g></g></g></g></g></svg>