<svg xmlns="http://www.w3.org/2000/svg" xmlns:xlink="http://www.w3.org/1999/xlink" viewBox="0 0 402.13 263.5"><defs><style>.cls-1{isolation:isolate;}.cls-2{fill:#301709;}.cls-3{fill:#eab88c;}.cls-4{opacity:0.25;}.cls-5{mix-blend-mode:soft-light;}.cls-6{fill:url(#linear-gradient);}.cls-7{fill:url(#linear-gradient-2);}.cls-8{fill:url(#linear-gradient-3);}.cls-9{fill:#42210b;}</style><linearGradient id="linear-gradient" x1="154.4" y1="97.15" x2="7.28" y2="60.61" gradientUnits="userSpaceOnUse"><stop offset="0" stop-color="#edc3a6"/><stop offset="0.21" stop-color="#f4d3bc"/><stop offset="0.52" stop-color="#ffebdc"/></linearGradient><linearGradient id="linear-gradient-2" x1="165.42" y1="86.3" x2="70.78" y2="92.38" xlink:href="#linear-gradient"/><linearGradient id="linear-gradient-3" x1="355.74" y1="199.55" x2="311.79" y2="126.28" gradientUnits="userSpaceOnUse"><stop offset="0" stop-color="#d6262a"/><stop offset="1" stop-color="#ee2b2f"/></linearGradient></defs><title>Asset 4</title><g class="cls-1"><g id="Layer_2" data-name="Layer 2"><g id="Legs_and_Boat" data-name="Legs and Boat"><path id="back_boat" data-name="back boat" class="cls-2" d="M401,145.64c4-14-314.13-41.72-401-30,47.87,26.28,100,62,236,59H397Z"/><g id="R_lower_leg" data-name="R lower leg"><path class="cls-3" d="M215.25,188.64H177.39c-9.3-43.42-37.78-165.11-6.41-184,8.35,17.16,19.88,37.14,30.73,55,5.95,9.78,11.7,18.91,16.61,26.58C211,107.39,198.26,154.69,215.25,188.64Z"/><g class="cls-4"><path d="M184.38,154.49l1.86.38a.39.39,0,0,0,.46-.27.38.38,0,0,0-.26-.46l-1.86-.37a.37.37,0,0,0-.46.26.37.37,0,0,0,.26.46Z"/><path d="M183.54,150.78h2.05a.38.38,0,0,0,.38-.37.39.39,0,0,0-.38-.38h-2.05a.38.38,0,0,0,0,.75Z"/><path d="M182.8,140.52a22.88,22.88,0,0,0,6.07-.33c.47-.09.27-.81-.2-.72a22.21,22.21,0,0,1-5.87.3c-.48,0-.48.71,0,.75Z"/><path d="M185,130.08a4.38,4.38,0,0,1-2.77-.53.38.38,0,0,0-.38.65,5,5,0,0,0,3.15.63.38.38,0,1,0,0-.75Z"/><path d="M178.14,137.55a.38.38,0,0,0,0-.75.38.38,0,0,0,0,.75Z"/><path d="M174.26,127.38l-.81-4.09c-.09-.48-.82-.28-.72.2l.8,4.08c.1.48.82.28.73-.19Z"/><path d="M177,117.23v-3.17a.38.38,0,0,0-.75,0v3.17a.38.38,0,0,0,.75,0Z"/><path d="M198.67,136.76a24.19,24.19,0,0,0,4.12,3.84.38.38,0,0,0,.51-.13.39.39,0,0,0-.14-.52,23.64,23.64,0,0,1-4-3.72.38.38,0,0,0-.53,0,.39.39,0,0,0,0,.53Z"/><path d="M203.11,148.36v2.79a.38.38,0,0,0,.75,0v-2.79a.38.38,0,0,0-.75,0Z"/><path d="M194.54,148.17v.56a.35.35,0,0,0,.11.26.33.33,0,0,0,.26.11.35.35,0,0,0,.27-.11.36.36,0,0,0,.11-.26v-.56a.38.38,0,0,0-.38-.37.34.34,0,0,0-.26.11.36.36,0,0,0-.11.26Z"/><path d="M189.14,147.05a.38.38,0,0,0,0-.75.38.38,0,0,0,0,.75Z"/><path d="M175.72,145.56H174a.38.38,0,0,0-.38.37.39.39,0,0,0,.38.38h1.68a.38.38,0,0,0,0-.75Z"/><path d="M177,158.43l-.37,0h-.11l-.19,0a2,2,0,0,1-.35-.11c-.09,0,.05,0,0,0l-.08,0-.18-.09a.37.37,0,1,0-.38.64,3.4,3.4,0,0,0,1.68.44.39.39,0,0,0,.38-.38.38.38,0,0,0-.38-.37Z"/><path d="M184.38,172.35a32.5,32.5,0,0,0,2.24,5.43c.22.43.87.05.65-.37a31.66,31.66,0,0,1-2.17-5.26c-.14-.46-.87-.27-.72.2Z"/><path d="M179.26,175.75v3.92a.38.38,0,0,0,.75,0v-3.92a.38.38,0,0,0-.75,0Z"/><path d="M187.3,161.85a11,11,0,0,0,3.7.89.38.38,0,0,0,0-.75,9.83,9.83,0,0,1-3.33-.79.39.39,0,0,0-.51.14.37.37,0,0,0,.14.51Z"/><path d="M182.24,164.2h-.37a.27.27,0,0,0-.15,0,.28.28,0,0,0-.12.08.25.25,0,0,0-.08.12.32.32,0,0,0,0,.14l0,.1a.4.4,0,0,0,.09.17.44.44,0,0,0,.27.11h.37a.23.23,0,0,0,.14,0,.24.24,0,0,0,.12-.07.28.28,0,0,0,.08-.12.21.21,0,0,0,0-.15v-.1a.34.34,0,0,0-.1-.16.36.36,0,0,0-.26-.11Z"/><path d="M195.65,176.83a12.25,12.25,0,0,1,2.54,1.79.37.37,0,0,0,.53-.53,13.11,13.11,0,0,0-2.69-1.91.37.37,0,0,0-.51.13.39.39,0,0,0,.13.52Z"/><path d="M195.66,170.54h2.42a.38.38,0,0,0,.38-.38.38.38,0,0,0-.38-.37h-2.42a.38.38,0,0,0-.38.37.39.39,0,0,0,.38.38Z"/><path d="M197.15,158.8H199a.38.38,0,1,0,0-.75h-1.86a.38.38,0,0,0-.38.37.39.39,0,0,0,.38.38Z"/><path d="M194.91,156.19a.38.38,0,0,0,0-.75.38.38,0,0,0,0,.75Z"/><path d="M195.47,128.41a4.6,4.6,0,0,1,0-.83s0-.12,0,0,0-.07,0-.11,0-.13,0-.2a2.77,2.77,0,0,1,.12-.41.37.37,0,0,0-.26-.46.39.39,0,0,0-.47.26,4.25,4.25,0,0,0-.2,1.77.5.5,0,0,0,.11.27.4.4,0,0,0,.27.11c.18,0,.4-.17.37-.38Z"/><path d="M205.91,186a.38.38,0,0,0,0-.75.38.38,0,0,0,0,.75Z"/><path d="M205,185.26h-1.87a.38.38,0,0,0,0,.75H205a.38.38,0,0,0,.37-.38.38.38,0,0,0-.37-.37Z"/><path d="M203.67,172v.74a.39.39,0,0,0,.11.27.37.37,0,0,0,.53,0,.4.4,0,0,0,.11-.27V172a.39.39,0,0,0-.11-.27.41.41,0,0,0-.26-.11.44.44,0,0,0-.27.11.39.39,0,0,0-.11.27Z"/><path d="M203.86,165a.38.38,0,0,0,0-.75.38.38,0,0,0,0,.75Z"/><path d="M188,184a.38.38,0,0,0,0-.75.38.38,0,0,0,0,.75Z"/><path d="M173.47,108.83a44.8,44.8,0,0,1,1.29-4.84c.15-.46-.57-.66-.72-.2a40.61,40.61,0,0,0-1.29,4.84c-.1.47.62.67.72.2Z"/><path d="M170.63,134.65l-.23.45a.37.37,0,0,0,0,.14.26.26,0,0,0,0,.15.31.31,0,0,0,.06.13.36.36,0,0,0,.11.1.41.41,0,0,0,.29,0,.34.34,0,0,0,.22-.17l.23-.45a.23.23,0,0,0,0-.14.26.26,0,0,0,0-.15.55.55,0,0,0-.17-.22.38.38,0,0,0-.29,0,.44.44,0,0,0-.23.17Z"/><path d="M182.69,118.4a20.42,20.42,0,0,0,.11,3.75.38.38,0,1,0,.75,0,20.42,20.42,0,0,1-.11-3.75c0-.48-.72-.48-.75,0Z"/></g><g class="cls-5"><path d="M215.25,188.64H195.32a63.71,63.71,0,0,1-1.18-7.1L186.91,123c-1.43-11.55-2.86-23.27-1.07-34.77,1.71-11.07,6.84-22.1,15.87-28.64,5.95,9.78,11.7,18.91,16.61,26.58C211,107.39,198.26,154.69,215.25,188.64Z"/></g></g><g id="R_upper_leg" data-name="R upper leg"><path class="cls-3" d="M297,114.64s-51-16-77.26-32.44c-.44,1.2-.91,2.53-1.42,4-4.91-7.67-10.66-16.8-16.61-26.58-10.85-17.82-22.38-37.8-30.73-55h0c25-15,62.5,8.5,76,40,3.19,7.46,49.51,30.72,50,42.88C297.57,101.84,297,114.64,297,114.64Z"/><g class="cls-5"><path d="M297,114.64s-51-16-77.26-32.44c-.44,1.2-.91,2.53-1.42,4-4.91-7.67-10.66-16.8-16.61-26.58.35-.26.7-.5,1.06-.74,9.92-6.58,22.92-7,34.41-3.9s21.82,9.38,32,15.57l27.84,17C297.57,101.84,297,114.64,297,114.64Z"/></g></g><g id="L_lower_leg" data-name="L lower leg"><path class="cls-6" d="M175.4,94.86c-15.4,34-16.4,93.78-16.4,93.78H117.5a240.59,240.59,0,0,1-3.15-43c1-70.73,29.74-139.53,57.15-144.51l1-.13c-6.2,16.09-6.83,38.32-2.44,66.62Q172.07,80.43,175.4,94.86Z"/><g class="cls-5"><path d="M170.1,67.63q2,12.8,5.3,27.23c-15.4,34-16.4,93.78-16.4,93.78H138c-4.38-25,1-102,27-119A16.38,16.38,0,0,1,170.1,67.63Z"/></g><g class="cls-4"><g class="cls-5"><path d="M150.65,198.59a22.31,22.31,0,0,1,.44-3.12Z"/></g><path d="M166.68,18.11h-4.54a.38.38,0,0,0,0,.75h4.54a.38.38,0,0,0,0-.75Z"/><path d="M155.59,34.31h-1.21a.38.38,0,0,0,0,.75h1.21a.38.38,0,1,0,0-.75Z"/><path d="M148.34,50.77a.38.38,0,0,0,0-.75.38.38,0,0,0,0,.75Z"/><path d="M161.63,27.5a.38.38,0,0,0,0-.75.38.38,0,0,0,0,.75Z"/><path d="M164.05,30.38a7.68,7.68,0,0,1-2.62-.59.37.37,0,0,0-.46.26.38.38,0,0,0,.26.46,8.07,8.07,0,0,0,2.82.62.38.38,0,1,0,0-.75Z"/><path d="M161,40.16l-1.81-1.51a.37.37,0,0,0-.53.53l1.81,1.51a.37.37,0,1,0,.53-.53Z"/><path d="M159.32,23.42l-2.44-.84a.37.37,0,1,0-.2.72l2.44.85a.38.38,0,1,0,.2-.73Z"/><path d="M167.94,10a7.46,7.46,0,0,0-2.79-2.19.39.39,0,0,0-.51.13.39.39,0,0,0,.13.52,6.85,6.85,0,0,1,2.64,2.07.38.38,0,0,0,.53,0,.4.4,0,0,0,0-.53Z"/><path d="M146.48,36.24,145,35a.41.41,0,0,0-.26-.11.4.4,0,0,0-.27.11.39.39,0,0,0,0,.53l1.52,1.2a.38.38,0,0,0,.26.11.37.37,0,0,0,.27-.11.39.39,0,0,0,0-.53Z"/><path d="M153.07,23.73l-.12,0c-.09,0,.06,0,0,0h-.22a.81.81,0,0,1-.22,0h-.16l-.43-.1-.1,0-.06,0h0l-.21-.1a.38.38,0,0,0-.38.65,3.16,3.16,0,0,0,2.11.31.38.38,0,0,0-.2-.73Z"/><path d="M144.59,60.67l-2.74-1.49a.39.39,0,0,0-.51.14.37.37,0,0,0,.14.51l2.73,1.49a.38.38,0,0,0,.38-.65Z"/><path d="M149.85,84.77a2.53,2.53,0,0,1-.55,0h-.2l-.25-.06-.25-.08h0l-.07,0-.12-.06-.24-.14-.11-.08h0l-.06,0a.37.37,0,0,0-.53.53,3.08,3.08,0,0,0,2.38.72.38.38,0,0,0,.37-.37c0-.18-.16-.41-.37-.38Z"/><path d="M158.83,94.23l7.85,2.43c.46.14.66-.58.2-.73L159,93.51a.37.37,0,0,0-.2.72Z"/><path d="M160.12,107.58h4.23a.38.38,0,0,0,0-.75h-4.23a.38.38,0,0,0,0,.75Z"/><path d="M160.43,112.72h2.71a.38.38,0,1,0,0-.75h-2.71a.38.38,0,1,0,0,.75Z"/><path d="M154.08,104a.38.38,0,0,0,0-.75.38.38,0,0,0,0,.75Z"/><path d="M149.55,118.46a.38.38,0,0,0,0-.75.38.38,0,0,0,0,.75Z"/><path d="M148,130.85a.38.38,0,0,0,0-.75.38.38,0,0,0,0,.75Z"/><path d="M155.59,109.4a.38.38,0,0,0,0-.75.38.38,0,0,0,0,.75Z"/><path d="M154.68,120.88a.38.38,0,0,0,0-.75.38.38,0,0,0,0,.75Z"/><path d="M152.57,129.67a26,26,0,0,0,6.13-1,.38.38,0,0,0-.2-.73,24.81,24.81,0,0,1-5.93,1,.38.38,0,0,0,0,.75Z"/><path d="M157.71,122.39h1.2a.38.38,0,0,0,.38-.38.38.38,0,0,0-.38-.37h-1.2a.38.38,0,0,0-.38.37.39.39,0,0,0,.38.38Z"/><path d="M151.7,140.71l.3.31a.37.37,0,0,0,.12.07.26.26,0,0,0,.15,0,.23.23,0,0,0,.14,0,.24.24,0,0,0,.12-.07l.06-.08a.41.41,0,0,0,0-.19v-.1a.34.34,0,0,0-.1-.16l-.3-.31a.24.24,0,0,0-.12-.07.26.26,0,0,0-.15,0,.23.23,0,0,0-.14,0,.24.24,0,0,0-.12.07l-.06.08a.41.41,0,0,0,0,.19v.1a.34.34,0,0,0,.1.16Z"/><path d="M148.61,146.4l-.93,2.71a.37.37,0,0,0,.26.46.38.38,0,0,0,.46-.26l.94-2.71a.39.39,0,0,0-.26-.46.4.4,0,0,0-.47.26Z"/><path d="M140.78,153.07h-5.13a.38.38,0,0,0,0,.75h5.13a.38.38,0,0,0,0-.75Z"/><path d="M134.74,137.35h-2.12a.38.38,0,0,0-.37.38.38.38,0,0,0,.37.37h2.12a.37.37,0,0,0,.37-.37.38.38,0,0,0-.37-.38Z"/><path d="M138.36,117.48a15.44,15.44,0,0,1-6.14-1.86.37.37,0,0,0-.37.65,16.2,16.2,0,0,0,6.51,2c.48,0,.48-.71,0-.75Z"/><path d="M128.09,125.57h-3a.38.38,0,0,0,0,.75h3a.38.38,0,0,0,0-.75Z"/><path d="M134.83,104.15l-.9-.31a.37.37,0,0,0-.29,0,.34.34,0,0,0-.17.22.37.37,0,0,0,.26.46l.9.31a.37.37,0,0,0,.29,0,.34.34,0,0,0,.17-.22.38.38,0,0,0-.26-.46Z"/><path d="M133.43,92.06a2.28,2.28,0,0,1-.38-.2L133,91.8s-.12-.1,0,0l-.16-.14-.15-.15-.06-.07,0,0c0-.05,0,.07,0,0s-.16-.24-.23-.37a.37.37,0,1,0-.64.38,2.9,2.9,0,0,0,1.39,1.31.47.47,0,0,0,.29,0,.43.43,0,0,0,.22-.18.36.36,0,0,0,0-.29.41.41,0,0,0-.17-.22Z"/><path d="M144.53,99.4A6.25,6.25,0,0,1,141,97.69c-.35-.33-.88.2-.53.53a7.11,7.11,0,0,0,4.09,1.93.38.38,0,0,0,.38-.37.39.39,0,0,0-.38-.38Z"/><path d="M139,85.59h-1.72a.38.38,0,0,0-.38.37.39.39,0,0,0,.38.38H139a.38.38,0,0,0,.37-.38.38.38,0,0,0-.37-.37Z"/><path d="M131.57,81.33a2.32,2.32,0,0,0-1-2.55.36.36,0,0,0-.51.13.37.37,0,0,0,.13.51l.13.09h0l.06,0,.2.2c.06.08,0,0,0,0l0,.06.08.13.06.12,0,.06c0,.07,0,0,0,0s.07.18.09.27a.68.68,0,0,1,0,.14s0-.07,0,0v.07a1.41,1.41,0,0,1,0,.29s0,.09,0,0,0,0,0,0a1,1,0,0,1,0,.14.38.38,0,0,0,.73.2Z"/><path d="M134.42,76.19l-2.58-1.72a.37.37,0,0,0-.37.65L134,76.84a.38.38,0,1,0,.38-.65Z"/><path d="M134.21,67.26l-1.3-2.57a.38.38,0,0,0-.51-.14.4.4,0,0,0-.13.52l1.3,2.57a.37.37,0,0,0,.64-.38Z"/><path d="M137.18,53.32V50.74a.38.38,0,0,0-.75,0v2.58a.39.39,0,0,0,.38.38.38.38,0,0,0,.37-.38Z"/><path d="M141.09,45.91l-.47-2.57a.37.37,0,0,0-.46-.26.39.39,0,0,0-.26.46l.46,2.57a.38.38,0,0,0,.46.26.39.39,0,0,0,.27-.46Z"/><path d="M125.21,105.77h-3.86a.38.38,0,0,0,0,.75h3.86a.38.38,0,0,0,0-.75Z"/><path d="M126.07,97.93a.38.38,0,0,0,0-.75.38.38,0,0,0,0,.75Z"/><path d="M126.93,86.34a.38.38,0,0,0,0-.75.38.38,0,0,0,0,.75Z"/><path d="M124.9,138.06l-2.14,2.58a.37.37,0,0,0,.53.53l2.14-2.58a.38.38,0,0,0,0-.53.37.37,0,0,0-.53,0Z"/><path d="M141.1,128.85a.38.38,0,0,0,0-.75.38.38,0,0,0,0,.75Z"/><path d="M141.1,119.84a.38.38,0,0,0,0-.75.38.38,0,0,0,0,.75Z"/><path d="M142,112.1a.38.38,0,0,0,0-.75.38.38,0,0,0,0,.75Z"/><path d="M145,109.1a.38.38,0,0,0,0-.75.38.38,0,0,0,0,.75Z"/><path d="M145,118.23h-1.72a.37.37,0,0,0-.37.37.38.38,0,0,0,.37.38H145a.38.38,0,0,0,.37-.38.38.38,0,0,0-.37-.37Z"/><path d="M124.35,116.94h-2.14a.38.38,0,0,0-.38.37.39.39,0,0,0,.38.38h2.14a.38.38,0,0,0,.38-.38.38.38,0,0,0-.38-.37Z"/><path d="M123.49,133.69h-2.14a.38.38,0,0,0-.38.37.39.39,0,0,0,.38.38h2.14a.38.38,0,0,0,.38-.38.38.38,0,0,0-.38-.37Z"/><path d="M121.4,152.53l-.48,6c0,.48.71.48.75,0l.48-6c0-.48-.71-.48-.75,0Z"/><path d="M121.83,169.28v2.15a.38.38,0,0,0,.75,0v-2.15a.38.38,0,1,0-.75,0Z"/><path d="M131.65,176.53a.38.38,0,0,0,0-.75.38.38,0,0,0,0,.75Z"/><path d="M132.08,174.38a.38.38,0,0,0,0-.75.38.38,0,0,0,0,.75Z"/><path d="M133.37,156.77a.38.38,0,0,0,0-.75.38.38,0,0,0,0,.75Z"/><path d="M140.31,163.8l.43,1.71a.37.37,0,1,0,.72-.2L141,163.6a.38.38,0,1,0-.73.2Z"/><path d="M134.69,162.73a11.93,11.93,0,0,0-.38,4.83.38.38,0,0,0,.75,0,11.31,11.31,0,0,1,.36-4.63.38.38,0,0,0-.73-.2Z"/><path d="M142.49,175.48a17.13,17.13,0,0,0,4.36,5.66c.37.31.9-.22.53-.53a16.62,16.62,0,0,1-4.24-5.5c-.21-.44-.86-.06-.65.37Z"/><path d="M151.41,171.79a4.8,4.8,0,0,1,4,1.63c.32.36.85-.17.53-.53a5.5,5.5,0,0,0-4.55-1.85c-.48,0-.48.79,0,.75Z"/><path d="M137.24,141.85H136a.38.38,0,1,0,0,.75h1.29a.38.38,0,0,0,0-.75Z"/><path d="M124,182.27l0,.07s0,0,0,0a1.09,1.09,0,0,1,0,.18,1.82,1.82,0,0,1,0,.33s0,0,0,.08h0l0,.18a1.68,1.68,0,0,1-.09.32.88.88,0,0,1,0,.15s0,0,0,0l0,.07a2.69,2.69,0,0,1-.16.29,2,2,0,0,1-.4.49.38.38,0,0,0,0,.53.39.39,0,0,0,.53,0,3.26,3.26,0,0,0,.95-2.94.38.38,0,0,0-.46-.27.4.4,0,0,0-.27.47Z"/><path d="M137.24,184.27a9.63,9.63,0,0,1,4.2.37c.46.15.66-.58.2-.72a10.09,10.09,0,0,0-4.4-.4.39.39,0,0,0-.37.38c0,.18.17.4.37.37Z"/><path d="M153.13,158.92H157a.38.38,0,0,0,0-.75h-3.86a.38.38,0,0,0,0,.75Z"/><path d="M158.71,145.17h.86a.39.39,0,0,0,.27-.11.41.41,0,0,0,.11-.26.39.39,0,0,0-.38-.38h-.86a.41.41,0,0,0-.26.11.36.36,0,0,0-.11.27.38.38,0,0,0,.37.37Z"/><path d="M155.27,67.22a2.8,2.8,0,0,1-2.54-3,.39.39,0,0,0-.26-.46A.37.37,0,0,0,152,64a3.55,3.55,0,0,0,3.26,4c.48,0,.48-.72,0-.75Z"/><path d="M156.36,52.54c-.48-1.94-1.16-3.81-1.65-5.74-.11-.47-.84-.27-.72.19.48,1.94,1.17,3.81,1.65,5.75a.37.37,0,0,0,.72-.2Z"/><path d="M169,84.62h2.15a.38.38,0,0,0,0-.75H169a.38.38,0,1,0,0,.75Z"/><path d="M160.76,75.71a7.89,7.89,0,0,1-3.67-.4.37.37,0,0,0-.46.26.38.38,0,0,0,.26.46,8.54,8.54,0,0,0,4.07.4.37.37,0,0,0,.26-.46.39.39,0,0,0-.46-.26Z"/></g></g><g id="L_upper_leg" data-name="L upper leg"><path class="cls-7" d="M299,79.64l-18.85,34L261.6,142.18l-.84,1.29-.55.84L256,150.73l-8.54,13.14L246.13,166c-41.95-24.5-68-60.25-70.63-71.34l-.1.22Q172.12,80.61,170.15,68c0-.11,0-.23-.05-.34-4.39-28.3-3.76-50.53,2.44-66.62,35.62-3.92,90.81,46.68,116,71.39C293.11,76.92,296.7,77.5,299,79.64Z"/><path class="cls-8" d="M381,92.52c-1.77,46.93-16.68,99.66-61.7,97.62C291.46,188.88,266.72,179,246.13,166l1.37-2.11c2.79-4.35,5.54-8.76,8.23-13.3l1.11-1.87,0-.07c.91-1.55,1.82-3.11,2.72-4.7l.45-.79c.4-.7.8-1.4,1.19-2.11A304.42,304.42,0,0,0,277,108.25c1.13-2.78,2.24-5.61,3.32-8.51.09-.23.17-.46.26-.7,2.86-7.75,5.5-15.93,7.9-24.64l.48-1.76c21.23,13.27,43.79,18.61,63.85,20.08l.54,0,1.9.13A178.78,178.78,0,0,0,381,92.52Z"/><g class="cls-5"><path d="M381,92.52c-1.77,46.93-16.68,99.66-61.7,97.62C291.46,188.88,266.72,179,246.13,166c-41.95-24.5-68-60.25-70.63-71.34l-.1.22Q172.12,80.61,170.15,68c4.41.37,8.82,2.64,12.61,5.16,29.11,19.34,46,55.37,77.29,70l.71.33c1.12.51,2.27,1,3.43,1.45a65.42,65.42,0,0,0,88.66-52.2l.54,0,1.9.13A178.78,178.78,0,0,0,381,92.52Z"/></g><g class="cls-4"><path d="M178.86,10.44h-3.33a.38.38,0,0,0,0,.75h3.33a.38.38,0,0,0,0-.75Z"/><path d="M175.53,17.83a.38.38,0,0,0,0-.75.38.38,0,0,0,0,.75Z"/><path d="M174.33,29.78H174a.17.17,0,0,0-.14,0,.2.2,0,0,0-.12.08.25.25,0,0,0-.08.12.32.32,0,0,0,0,.14v.1a.42.42,0,0,0,.1.17l.07,0a.35.35,0,0,0,.19.06h.31a.23.23,0,0,0,.14,0,.24.24,0,0,0,.12-.07.42.42,0,0,0,.08-.12.4.4,0,0,0,0-.15v-.1a.34.34,0,0,0-.1-.16l-.07-.06a.34.34,0,0,0-.19,0Z"/><path d="M171.73,53.27h6a.38.38,0,0,0,0-.75h-6a.38.38,0,0,0,0,.75Z"/><path d="M172.45,64H178a.38.38,0,0,0,0-.75h-5.58a.38.38,0,0,0,0,.75Z"/><path d="M174.84,78.62a6.93,6.93,0,0,1,3.69.34.38.38,0,0,0,.46-.26.39.39,0,0,0-.26-.47,7.8,7.8,0,0,0-4.09-.33.37.37,0,1,0,.2.72Z"/><path d="M185.67,84.18l2.15.42a.38.38,0,0,0,.46-.26.39.39,0,0,0-.26-.46l-2.15-.43a.38.38,0,0,0-.2.73Z"/><path d="M188.85,93.59a7.07,7.07,0,0,0,5.08,2.61c.48,0,.48-.73,0-.75a6.33,6.33,0,0,1-4.54-2.39.39.39,0,0,0-.54,0,.4.4,0,0,0,0,.53Z"/><path d="M192.29,105.2l3.87,4.29c.32.36.85-.17.53-.53l-3.87-4.29c-.32-.36-.85.17-.53.53Z"/><path d="M204.59,111.55l4.29.9c.47.1.67-.62.19-.72l-4.28-.9c-.47-.1-.67.62-.2.72Z"/><path d="M210.25,82.47h6.87a.38.38,0,0,0,0-.75h-6.87a.38.38,0,0,0,0,.75Z"/><path d="M204.42,51.85c.43.48.87,1,1.29,1.45l.38.45a1.83,1.83,0,0,0,.13.16l.06.08,0,0c.33.43.66.87,1,1.29s.94,1.06,1.41,1.58c.33.36.86-.17.54-.53s-.88-.95-1.3-1.44l-.38-.45a1.83,1.83,0,0,0-.13-.16l-.06-.08,0,0c-.33-.43-.66-.87-1-1.29s-.94-1.06-1.41-1.59c-.33-.35-.86.18-.53.53Z"/><path d="M195,33.46a9.87,9.87,0,0,1,4.16,3.73c.25.41.9,0,.65-.38a10.63,10.63,0,0,0-4.43-4,.4.4,0,0,0-.52.14.38.38,0,0,0,.14.51Z"/><path d="M193,45.12a25.7,25.7,0,0,1,2.35,1.17,7.74,7.74,0,0,0,2.59.71.39.39,0,0,0,.46-.26.37.37,0,0,0-.26-.46,7.42,7.42,0,0,1-2.48-.68,24.31,24.31,0,0,0-2.46-1.2.37.37,0,0,0-.46.26.38.38,0,0,0,.26.46Z"/><path d="M207.91,30l6,2.58a.39.39,0,0,0,.51-.13.39.39,0,0,0-.14-.52l-6-2.57a.37.37,0,1,0-.38.64Z"/><path d="M226.7,38.89,228,40.6a.37.37,0,0,0,.52.14.39.39,0,0,0,.13-.52l-1.29-1.71a.36.36,0,0,0-.23-.17.35.35,0,0,0-.28,0,.39.39,0,0,0-.14.52Z"/><path d="M237,57.88a21.37,21.37,0,0,0,1.72,1.43l.34.23.2.14.06,0h0l.17.14c.41.33.81.68,1.2,1s.9-.2.54-.53a21.37,21.37,0,0,0-1.72-1.43l-.34-.23-.2-.14-.06,0s.05,0,0,0l-.17-.14c-.41-.33-.8-.68-1.2-1s-.89.21-.53.53Z"/><path d="M245.21,73.76,250.33,79c.33.35.86-.18.53-.53l-5.12-5.19c-.34-.35-.87.18-.53.53Z"/><path d="M244,84.59l3.44,2.57a.39.39,0,0,0,.52-.14.38.38,0,0,0-.14-.51l-3.44-2.57a.38.38,0,0,0-.51.14.38.38,0,0,0,.13.51Z"/><path d="M236.25,93.17l4.29,2.59c.41.25.79-.4.37-.65l-4.28-2.58a.37.37,0,0,0-.38.64Z"/><path d="M217.28,91c.86.75,1.65,1.59,2.55,2.29a15.49,15.49,0,0,0,3,1.72c.43.22.81-.43.38-.64a15.83,15.83,0,0,1-2.87-1.64c-.88-.7-1.66-1.52-2.51-2.26-.36-.32-.89.21-.53.53Z"/><path d="M226.86,73.75l2.58,1.71a.38.38,0,1,0,.38-.65l-2.58-1.71a.38.38,0,0,0-.51.13.4.4,0,0,0,.13.52Z"/><path d="M200.54,64.32,202.25,66a.37.37,0,0,0,.53-.53l-1.71-1.72a.37.37,0,0,0-.53.53Z"/><path d="M194.56,68.73l1.71,1.3a.35.35,0,0,0,.28,0,.36.36,0,0,0,.23-.17.4.4,0,0,0-.14-.52l-1.7-1.3a.42.42,0,0,0-.29,0,.41.41,0,0,0-.23.18.39.39,0,0,0,.14.51Z"/><path d="M207.24,73h2.15a.38.38,0,1,0,0-.75h-2.15a.38.38,0,0,0,0,.75Z"/><path d="M185.77,46.5h-1.29a.38.38,0,0,0-.37.38.37.37,0,0,0,.37.37h1.29a.37.37,0,0,0,.37-.37.38.38,0,0,0-.37-.38Z"/><path d="M180.19,38.23a.38.38,0,0,0,0-.75.38.38,0,0,0,0,.75Z"/><path d="M180.33,37.19l-2.56-1.32a.38.38,0,0,0-.38.65L180,37.84a.38.38,0,0,0,.51-.13.39.39,0,0,0-.13-.52Z"/><path d="M183.37,23l-2.16-1.28a.37.37,0,0,0-.51.13.4.4,0,0,0,.14.52L183,23.6a.37.37,0,0,0,.38-.64Z"/><path d="M192.48,23.85l-2.15-2.15a.37.37,0,1,0-.53.53L192,24.38a.38.38,0,0,0,.53,0,.4.4,0,0,0,0-.53Z"/><path d="M196.94,18.48a.38.38,0,0,0,0-.75.38.38,0,0,0,0,.75Z"/><path d="M217.12,46h.43a.17.17,0,0,0,.14,0,.26.26,0,0,0,.13-.08.24.24,0,0,0,.07-.12.23.23,0,0,0,0-.14.44.44,0,0,0-.11-.27.46.46,0,0,0-.27-.11h-.43a.23.23,0,0,0-.14,0,.24.24,0,0,0-.12.07.26.26,0,0,0-.08.13.17.17,0,0,0,0,.14.31.31,0,0,0,.11.26.36.36,0,0,0,.26.11Z"/><path d="M212.28,22.12a3.23,3.23,0,0,1-2.85-1c-.34-.35-.87.19-.54.53a4,4,0,0,0,3.59,1.16.37.37,0,0,0,.26-.46.39.39,0,0,0-.46-.26Z"/><path d="M225.79,54.83h-1.61a.38.38,0,1,0,0,.75h1.61a.38.38,0,0,0,.37-.37.38.38,0,0,0-.37-.38Z"/><path d="M227.93,110.08h-3.22a.38.38,0,0,0,0,.75h3.22a.38.38,0,0,0,0-.75Z"/><path d="M219.89,127.24h-2.15a.38.38,0,0,0,0,.75h2.15a.38.38,0,0,0,0-.75Z"/><path d="M204.27,123.37c-2.27-2-4.35-4.22-6.61-6.25-.36-.32-.89.21-.53.53,2.26,2,4.34,4.23,6.6,6.25.36.33.9-.2.54-.53Z"/><path d="M231.05,142.8a3.27,3.27,0,0,1-2.85-1c-.34-.35-.87.18-.53.53a4,4,0,0,0,3.58,1.16.37.37,0,0,0,.26-.46.38.38,0,0,0-.46-.26Z"/><path d="M243.53,136a29,29,0,0,1-5.67-2.92c-.4-.27-.78.38-.37.65a29,29,0,0,0,5.84,3c.46.17.65-.56.2-.72Z"/><path d="M259.12,128.36a28.92,28.92,0,0,1-8.45-5.25c-.36-.32-.89.21-.53.53a30,30,0,0,0,8.79,5.45c.44.18.64-.55.19-.73Z"/><path d="M261.72,102.57H259a.38.38,0,0,0,0,.75h2.68a.39.39,0,0,0,.38-.38.38.38,0,0,0-.38-.37Z"/><path d="M236.51,114a.38.38,0,0,0,0-.75.38.38,0,0,0,0,.75Z"/><path d="M248.47,109.11l-1.07-.54a.35.35,0,0,0-.28,0,.4.4,0,0,0-.23.17.39.39,0,0,0,.14.52l1.06.54a.37.37,0,0,0,.29,0,.37.37,0,0,0,.09-.69Z"/><path d="M260.2,117.67a12.86,12.86,0,0,1-5.65-2.74c-.37-.3-.91.22-.54.53a13.8,13.8,0,0,0,6,2.94c.47.1.67-.62.2-.73Z"/><path d="M266.55,88.62h-4.29a.38.38,0,0,0,0,.75h4.29a.38.38,0,0,0,0-.75Z"/><path d="M253.13,56.55a5.83,5.83,0,0,1-3.91-2.23.38.38,0,0,0-.53,0,.39.39,0,0,0,0,.53,6.52,6.52,0,0,0,4.44,2.45c.2,0,.37-.19.37-.37a.39.39,0,0,0-.37-.38Z"/><path d="M240.27,41.47a5.26,5.26,0,0,1-4.45-2,.38.38,0,0,0-.51-.13.38.38,0,0,0-.14.51,6.07,6.07,0,0,0,5.1,2.42c.48,0,.48-.78,0-.75Z"/><path d="M240.27,150.37a12,12,0,0,1-2.67-3.05,28.2,28.2,0,0,1-1.64-3.78c-.17-.44-.9-.25-.72.2a28.37,28.37,0,0,0,1.72,4,12.3,12.3,0,0,0,2.77,3.2c.37.32.9-.21.54-.53Z"/><path d="M236.57,125.22l-2.67-1.1a.37.37,0,0,0-.46.26.38.38,0,0,0,.26.46l2.67,1.1a.37.37,0,0,0,.46-.26.39.39,0,0,0-.26-.46Z"/><path d="M253.14,140.86a.38.38,0,0,0,0-.75.38.38,0,0,0,0,.75Z"/><path d="M269.23,111.9a.38.38,0,0,0,0-.75.38.38,0,0,0,0,.75Z"/></g></g><path id="front_boat" data-name="front boat" class="cls-9" d="M402.06,148.87a4.66,4.66,0,0,0-4.09-5.46c-7.19-.75-18.33-1.53-23-.77-128,21-256.17-13.47-375-27,52,214,385.13,132.72,385.13,132.72Z"/></g></g></g></svg>