<svg xmlns="http://www.w3.org/2000/svg" xmlns:xlink="http://www.w3.org/1999/xlink" viewBox="0 0 535.23 394.44"><defs><style>.cls-1{isolation:isolate;}.cls-2{fill:none;stroke:#000;stroke-miterlimit:10;}.cls-3{fill:url(#linear-gradient);}.cls-4,.cls-7{mix-blend-mode:soft-light;}.cls-5{fill:url(#linear-gradient-2);}.cls-6{fill:#0078c1;}.cls-8{fill:url(#linear-gradient-3);}.cls-9{fill:url(#linear-gradient-4);}.cls-10{fill:url(#linear-gradient-5);}</style><linearGradient id="linear-gradient" x1="503.39" y1="266.16" x2="342.25" y2="128.91" gradientUnits="userSpaceOnUse"><stop offset="0" stop-color="#edc3a6"/><stop offset="0.21" stop-color="#f4d3bc"/><stop offset="0.52" stop-color="#ffebdc"/></linearGradient><linearGradient id="linear-gradient-2" x1="553.53" y1="201.2" x2="490.39" y2="196.07" gradientUnits="userSpaceOnUse"><stop offset="0" stop-color="#f0f0f0"/><stop offset="1" stop-color="#fff"/></linearGradient><linearGradient id="linear-gradient-3" x1="476.3" y1="276.67" x2="474.41" y2="275.89" xlink:href="#linear-gradient"/><linearGradient id="linear-gradient-4" x1="456.74" y1="292.86" x2="161.93" y2="-28.7" xlink:href="#linear-gradient"/><linearGradient id="linear-gradient-5" x1="434.29" y1="257.8" x2="332.99" y2="148.62" xlink:href="#linear-gradient"/></defs><title>Asset 3</title><g class="cls-1"><g id="Layer_2" data-name="Layer 2"><g id="L_arm_fishing_rod" data-name="L arm &amp; fishing rod"><g id="Fishing_rod" data-name="Fishing rod"><path d="M416,319.75a4,4,0,0,1-4-3.89c0-.5-1.55-50.6-16.35-109.73-8.66-34.61-20.11-65.5-34-91.8C344.29,81.64,323.14,56,298.7,38.14,253.14,4.83,195.39-.09,127.07,19.59a4,4,0,0,1-2.21-7.69C195.69-8.5,255.77-3.17,303.44,31.7c25.44,18.6,47.4,45.18,65.27,79,14.21,26.89,25.89,58.41,34.7,93.68C418.4,264.3,420,315.13,420,315.64a4,4,0,0,1-3.89,4.1Z"/><circle class="cls-2" cx="146.46" cy="24.25" r="10"/><circle class="cls-2" cx="247.46" cy="23.25" r="10"/><circle cx="389.96" cy="203.75" r="13"/><path class="cls-2" d="M387.24,204.22C334.93,54.1,237.46,1.25,149.57,32.5L.46,394.25"/><circle class="cls-2" cx="324.46" cy="75.25" r="10"/></g><g id="L_arm" data-name="L arm"><path class="cls-3" d="M500,327.75A40.56,40.56,0,0,1,481.13,333c-1.87-5.06-3.29-13.29-4.19-22-1.29-12.5-1.52-26-.5-32.78h0a.13.13,0,0,1,0-.06,14.56,14.56,0,0,1-.48-3.1c-1.07-15.13,7-61.34,7-61.34s15.1-13.49,28.94-16.45c7.36-1.57,14.36-.17,18.54,7.83a23.79,23.79,0,0,1,1.17,2.58c.3.8.59,1.64.85,2.54C541.46,241.25,528,308.75,500,327.75Z"/><path class="cls-4" d="M500,327.75A40.56,40.56,0,0,1,481.13,333c-1.87-5.06-3.29-13.29-4.19-22,26.54-9.65,32.65-71.2,32-98.27l8-6,13.48-1.62a23.79,23.79,0,0,1,1.17,2.58c.3.8.59,1.64.85,2.54C541.46,241.25,528,308.75,500,327.75Z"/><path class="cls-5" d="M532.46,209.25c-2.05,1.8-5.94,3.26-10.7,4.38a103,103,0,0,1-14.3,2.18c-11,1-21.93.48-25-1.56,0-1.17,0-2.32,0-3.44,0-.53,0-1,.06-1.55,0-.84.09-1.66.16-2.46,0-.52.09-1,.14-1.53a57.49,57.49,0,0,1,1-6.54c.13-.62.28-1.23.43-1.83.21-.83.43-1.63.68-2.4.17-.54.35-1.07.53-1.58a33.59,33.59,0,0,1,2.76-6q.56-.92,1.14-1.74a23.63,23.63,0,0,1,1.59-2q.74-.82,1.5-1.53a17.36,17.36,0,0,1,4.78-3.17h0q.36-.17.72-.3a16.56,16.56,0,0,1,13.21.86,21.77,21.77,0,0,1,3.33,1.92q.36.24.72.51a29.58,29.58,0,0,1,3.06,2.57,38.45,38.45,0,0,1,4.37,5c.53.7,1,1.43,1.54,2.19.24.35.47.71.7,1.07.43.68.85,1.38,1.25,2.1a63.08,63.08,0,0,1,3.21,6.48c.17.38.33.77.49,1.16.34.83.67,1.67,1,2.54.14.39.29.79.43,1.19C531.71,206.88,532.1,208.05,532.46,209.25Z"/><path class="cls-6" d="M531.32,205.75a120.66,120.66,0,0,1-28,5.47c-2.81.21-5.6.31-8.35.31a106.44,106.44,0,0,1-12.47-.72c0-.53,0-1,.06-1.55,0-.84.09-1.66.16-2.46a105.36,105.36,0,0,0,20.31.43A115.8,115.8,0,0,0,529.9,202c.34.83.67,1.67,1,2.54C531,205,531.18,205.35,531.32,205.75Z"/><path class="cls-6" d="M526.2,194.38a93,93,0,0,1-30.35,5.18,85.9,85.9,0,0,1-12-.83c.13-.62.28-1.23.43-1.83.21-.83.43-1.63.68-2.4a87.3,87.3,0,0,0,39.26-3.29c.24.35.47.71.7,1.07C525.38,193,525.8,193.66,526.2,194.38Z"/><path class="cls-6" d="M518.34,184.06a67.25,67.25,0,0,1-30.06,2.9q.56-.92,1.14-1.74a23.63,23.63,0,0,1,1.59-2A63.52,63.52,0,0,0,514.56,181q.36.24.72.51A29.58,29.58,0,0,1,518.34,184.06Z"/><g class="cls-7"><path d="M507.46,215.81a103,103,0,0,0,14.3-2.18c4.76-1.12,8.65-2.58,10.7-4.38-.36-1.2-.75-2.37-1.14-3.5-.14-.4-.29-.8-.43-1.19-.32-.87-.65-1.71-1-2.54-.16-.39-.32-.78-.49-1.16a63.08,63.08,0,0,0-3.21-6.48c-.4-.72-.82-1.42-1.25-2.1-.23-.36-.46-.72-.7-1.07-.5-.76-1-1.49-1.54-2.19a38.45,38.45,0,0,0-4.37-5,29.58,29.58,0,0,0-3.06-2.57q-.36-.27-.72-.51a21.77,21.77,0,0,0-3.33-1.92A16.56,16.56,0,0,0,498,178.2q-.36.13-.72.3C504,186.75,508,205.75,507.46,215.81Z"/></g><path class="cls-8" d="M476.45,278.19a14.56,14.56,0,0,1-.48-3.1l1,.66A17.14,17.14,0,0,0,476.45,278.19Z"/><path class="cls-9" d="M481.13,333c-30.1.57-54.79-36.42-70.09-66.35-1.79-3.49-3.44-6.88-5-10.1h0c-1.88-4-3.56-7.73-5-11.08-2.49-5.71-4.35-10.29-5.52-13.08l17.87-16.24.06.08c36.49,24.49,41.5,50.48,63,62-1,6.75-.79,20.28.5,32.78C477.84,319.74,479.26,328,481.13,333Z"/><path class="cls-4" d="M481.13,333c-30.1.57-54.79-36.42-70.09-66.35-1.79-3.49-3.44-6.88-5-10.1,32.56,47.85,55.25,60.13,70.86,54.44C477.84,319.74,479.26,328,481.13,333Z"/><path class="cls-10" d="M413.4,216.17c-3,8.59-8.89,14.1-17.87,16.24l-.07-.16a29.6,29.6,0,0,1-9-6.55,21.79,21.79,0,0,1-1.91-2.37c-10.54-14.85,2.32-34.08,23-13.84.08.08.17.16.25.25A67.85,67.85,0,0,1,413.4,216.17Z"/><g class="cls-7"><path d="M413.4,216.17c-3,8.59-8.89,14.1-17.87,16.24l-.07-.16a29.6,29.6,0,0,1-9-6.55,21.79,21.79,0,0,1-1.91-2.37,6,6,0,0,1,2,.92c4.65,2.77,11,1.68,15.09-1.84a19.18,19.18,0,0,0,6.15-12.67A67.85,67.85,0,0,1,413.4,216.17Z"/></g></g></g></g></g></svg>