<svg width="32" height="34" viewBox="0 0 32 34" fill="none" xmlns="http://www.w3.org/2000/svg">
<path d="M31.9777 15.6951C31.8515 18.8706 31.0305 21.4013 29.515 23.2872C27.9994 25.173 25.9787 26.1159 23.4528 26.1159C22.4171 26.1159 21.5015 25.903 20.7058 25.4772V25.4772C19.606 24.8718 17.9648 24.7634 16.8548 25.3499C15.9806 25.8119 14.9846 26.0429 13.8669 26.0429C12.6545 26.0429 11.5936 25.7023 10.6843 25.0209C9.77493 24.3274 9.10556 23.348 8.67616 22.0827C8.25938 20.8173 8.13308 19.3816 8.29727 17.7756C8.67616 14.7339 9.69284 12.2884 11.3473 10.4391C13.0018 8.58973 15.0288 7.66506 17.4285 7.66506C19.285 7.66506 20.8827 8.07873 22.2214 8.90607V8.90607C22.9549 9.37718 23.3658 10.217 23.2875 11.0853L22.4487 20.3854C22.234 22.0766 22.8402 22.9222 24.2674 22.9222C25.3409 22.9222 26.2376 22.2652 26.9575 20.9512C27.69 19.625 28.0941 17.9338 28.1699 15.8776C28.3846 11.8139 27.5069 8.6749 25.5367 6.46055C23.5791 4.2462 20.7058 3.13902 16.917 3.13902C14.5047 3.13902 12.3577 3.73519 10.4759 4.92754C8.60669 6.10771 7.12272 7.78672 6.02394 9.96457C4.9378 12.1303 4.32526 14.6001 4.18634 17.3741C3.98426 21.6325 4.86833 24.8871 6.83855 27.1379C8.80877 29.401 11.7641 30.5325 15.7045 30.5325C16.7654 30.5325 17.8894 30.4108 19.0766 30.1675C19.4463 30.0955 19.7945 30.0194 20.1213 29.9391C21.1086 29.6967 22.1851 30.254 22.4143 31.2444V31.2444C22.5711 31.9219 22.2854 32.636 21.6435 32.9038C21.046 33.153 20.3482 33.3663 19.5502 33.5437C18.2494 33.8479 16.9422 34 15.6287 34C12.1809 34 9.26343 33.3612 6.87644 32.0837C4.50208 30.8184 2.73393 28.9386 1.57201 26.4444C0.41009 23.9503 -0.107723 20.9268 0.0185729 17.3741C0.170128 14.0161 0.972107 11.0109 2.42451 8.35856C3.88954 5.69404 5.88502 3.63786 8.41093 2.19002C10.9495 0.730005 13.8101 0 16.9927 0C20.1754 0 22.9223 0.638755 25.2335 1.91626C27.5448 3.18161 29.2813 5.00662 30.4433 7.3913C31.6052 9.77599 32.1167 12.5439 31.9777 15.6951ZM13.0334 17.7756C12.8944 19.3573 13.0207 20.5557 13.4123 21.3709C13.8164 22.1739 14.4605 22.5754 15.3446 22.5754C15.9382 22.5754 16.4812 22.3199 16.9738 21.8089C17.3283 21.4503 17.6393 20.9839 17.9067 20.4096C18.1457 19.8964 18.2501 19.3339 18.3014 18.7701L18.8743 12.4787C18.9363 11.7974 18.4914 11.1508 17.8073 11.1508V11.1508C16.3928 11.1508 15.3004 11.6862 14.53 12.7568C13.7722 13.8154 13.2733 15.4883 13.0334 17.7756Z" fill="white"/>
</svg>
