<svg width="62" height="62" viewBox="0 0 62 62" fill="none" xmlns="http://www.w3.org/2000/svg">
<g clip-path="url(#clip0)">
<path d="M30.7159 1.32849C13.7454 1.32849 0 15.0815 0 32.0444C0 45.6183 8.80011 57.1291 21.002 61.1861C22.5378 61.4754 23.1009 60.5257 23.1009 59.7092C23.1009 58.9797 23.0753 57.0472 23.0625 54.4875C14.5184 56.3407 12.7164 50.3664 12.7164 50.3664C11.3188 46.8213 9.29924 45.8742 9.29924 45.8742C6.51689 43.9699 9.51425 44.0083 9.51425 44.0083C12.5986 44.2233 14.2189 47.172 14.2189 47.172C16.9577 51.869 21.409 50.5123 23.1649 49.7265C23.4414 47.7402 24.2323 46.3862 25.1103 45.6183C18.2888 44.8504 11.1192 42.2088 11.1192 30.4395C11.1192 27.0863 12.3094 24.3475 14.2803 22.1974C13.9348 21.4218 12.8981 18.299 14.5491 14.0679C14.5491 14.0679 17.1216 13.2437 22.996 17.2163C25.4533 16.5329 28.0641 16.195 30.675 16.1796C33.2858 16.195 35.8967 16.5329 38.3539 17.2163C44.19 13.2437 46.7624 14.0679 46.7624 14.0679C48.4134 18.299 47.3767 21.4218 47.0696 22.1974C49.0277 24.3475 50.218 27.0863 50.218 30.4395C50.218 42.2395 43.0381 44.8376 36.2038 45.5927C37.2789 46.5142 38.2771 48.3981 38.2771 51.2751C38.2771 55.3859 38.2388 58.6879 38.2388 59.6862C38.2388 60.4925 38.7763 61.4523 40.3505 61.1452C52.6394 57.1163 61.4318 45.5978 61.4318 32.0444C61.4318 15.0815 47.6788 1.32849 30.7159 1.32849Z" fill="white"/>
</g>
<defs>
<clipPath id="clip0">
<rect y="0.568237" width="61.4318" height="61.4318" fill="white"/>
</clipPath>
</defs>
</svg>
