<svg width="62" height="62" viewBox="0 0 62 62" fill="none" xmlns="http://www.w3.org/2000/svg">
<g clip-path="url(#clip0)">
<path d="M52.3374 52.3502H43.2403V38.0954C43.2403 34.6962 43.1712 30.3217 38.4998 30.3217C33.7568 30.3217 33.0324 34.0204 33.0324 37.8446V52.3502H23.9354V23.0369H32.674V27.0326H32.7918C34.0128 24.7289 36.982 22.2972 41.4178 22.2972C50.6352 22.2972 52.3399 28.3636 52.3399 36.2601V52.3502H52.3374ZM13.6609 19.0259C10.7327 19.0259 8.38032 16.6557 8.38032 13.7403C8.38032 10.8274 10.7352 8.45967 13.6609 8.45967C16.5789 8.45967 18.944 10.8274 18.944 13.7403C18.944 16.6557 16.5764 19.0259 13.6609 19.0259ZM18.2222 52.3502H9.09959V23.0369H18.2222V52.3502ZM56.8884 0H4.53316C2.02725 0 0 1.98118 0 4.42565V57.0062C0 59.4532 2.02725 61.4318 4.53316 61.4318H56.8807C59.3841 61.4318 61.4318 59.4532 61.4318 57.0062V4.42565C61.4318 1.98118 59.3841 0 56.8807 0H56.8884Z" fill="white"/>
</g>
<defs>
<clipPath id="clip0">
<rect width="61.4318" height="61.4318" fill="white"/>
</clipPath>
</defs>
</svg>
