<svg xmlns="http://www.w3.org/2000/svg" viewBox="0 0 419.96 394.44"><defs><style>.cls-1{fill:none;stroke:#000;stroke-miterlimit:10;}</style></defs><title>Asset 5</title><g id="Layer_2" data-name="Layer 2"><g id="Fishing_Rod" data-name="Fishing Rod"><g id="Fishing_rod-2" data-name="Fishing rod"><path d="M416,319.75a4,4,0,0,1-4-3.89c0-.5-1.55-50.6-16.35-109.73-8.66-34.61-20.11-65.5-34-91.8C344.29,81.64,323.14,56,298.7,38.14,253.14,4.83,195.39-.09,127.07,19.59a4,4,0,0,1-2.21-7.69C195.69-8.5,255.77-3.17,303.44,31.7c25.44,18.6,47.4,45.18,65.27,79,14.21,26.89,25.89,58.41,34.7,93.68C418.4,264.3,420,315.13,420,315.64a4,4,0,0,1-3.89,4.1Z"/><circle class="cls-1" cx="146.46" cy="24.25" r="10"/><circle class="cls-1" cx="247.46" cy="23.25" r="10"/><circle cx="389.96" cy="203.75" r="13"/><path class="cls-1" d="M387.24,204.22C334.93,54.1,237.46,1.25,149.57,32.5L.46,394.25"/><circle class="cls-1" cx="324.46" cy="75.25" r="10"/></g></g></g></svg>